<?xml version="1.0"?>
<svg xmlns="http://www.w3.org/2000/svg" version="1.2" baseProfile="tiny" width="800" height="602" viewBox="0 0 800 602" stroke-linecap="round" stroke-linejoin="round">
<g id="97e2700">
<path d="M 44.5536 1.3774 55.8182 1 66.2516 2.3032 89.1834 5.4699 113.2536 9.8303 130.3511 12.8775 150.74 15.3436 161.1663 17.3171 168.316 20.856 182.0294 30.2891 193.8688 39.9091 218.1363 60.7739 227.0215 70.3593 233.427 74.5437 238.8922 76.8401 256.0018 84.6528 264.1846 91.2446 271.4523 94.7837 286.9945 102.6585 293.3367 105.753 294.7239 108.0959 298.0296 113.1736 298.3858 118.1009 303.4378 125.2139 309.0419 130.8395 314.6801 130.5201 322.0283 124.411 328.8127 121.5923 335.9559 127.1747 336.9429 133.8207 335.2419 140.4607 343.8198 143.906 353.8433 144.483 360.9119 140.6098 360.0214 135.6749 357.1404 132.8371 346.0286 124.4731 335.5052 114.8676 333.044 109.4888 336.3695 104.3768 341.6418 103.7397 346.8603 105.5786 354.8609 108.7144 367.7344 108.8244 378.7304 109.3868 387.7212 107.1197 402.9428 107.5091 416.3218 107.6865 425.9777 105.9188 444.387 107.3128 461.5049 105.4397 470.1138 107.484 477.7556 112.539 515.1184 119.7107 531.5401 125.039 546.3817 132.2219 562.1307 139.2896 575.7932 146.1607 593.9766 149.5639 612.8754 150.6603 625.8178 149.5327 633.1978 146.4669 646.3754 137.2129 659.8288 124.9114 667.7331 112.3869 675.9754 97.0897 680.921 91.4481 688.1439 86.3688 696.2749 81.838 705.3485 78.6967 714.6073 75.0572 725.0598 76.7431 735.7813 78.2599 742.4311 79.9776 750.2897 84.4599 758.2517 86.9213 773.6228 92.1082 781.9803 96.1214 785.4304 99.5585 787.4216 105.3414 790.3852 112.772 792.0526 124.8668 793.7688 147.5181 795.0555 168.1819 796.854 189.7877 798.4088 206.2096 799 216.9495 797.7221 228.3182 793.0651 247.5158 787.0457 265.9749 780.1633 283.5104 771.2632 297.5612 759.4319 312.493 754.0164 321.9002 751.1552 325.9103 749.9161 331.7992 745.1487 340.0502 742.4966 347.3571 735.7146 364.0738 730.6042 386.8488 726.8236 406.0085 724.4289 413.4686 719.6731 420.5741 710.78 435.6065 705.8472 443.3569 701.9625 452.777 702.709 466.4421 705.5949 479.4564 704.4206 490.158 701.9871 499.5293 697.1333 508.8409 691.5922 515.823 682.1355 520.7442 673.5066 526.9936 670.4716 534.7706 662.7954 549.1616 663.0349 562.8142 658.6044 571.0694 655.5718 574.2959 648.4906 576.6273 636.7982 576.3923 628.6241 569.0958 632.5185 559.6567 639.6614 552.0775 639.9183 547.5892 631.0393 545.523 618.2645 544.6459 610.8472 549.2623 605.2957 556.317 601.5817 564.4629 596.0613 572.6374 588.4909 578.9826 579.4245 582.5674 554.4947 585.3204 531.9067 585.4463 513.3208 582.606 490.9949 582.2755 471.9432 579.292 458.5755 577.9225 444.349 579.154 427.8109 587.6938 410.1273 595.5325 389.3898 601.4353 379.3119 598.9116 372.4579 590.5158 370.3755 584.7356 366.1574 582.0891 350.7461 582.0637 331.119 577.2755 327.8524 573.2128 327.5677 566.938 331.0208 555.4346 336.5477 548.0836 331.8478 545.8018 319.0063 544.8898 312.7285 543.4657 311.5311 540.4932 307.6185 498.0325 304.0283 473.9028 299.9138 458.6054 276.1322 428.8457 259.5325 422.5902 250.1909 420.1238 243.9988 423.7125 235.5398 426.6371 228.4985 426.2293 224.0393 423.8833 215.0823 420.7018 207.7414 415.609 197.9011 411.1189 192.295 403.9268 185.6553 398.9724 180.1361 395.2226 177.5633 389.5147 174.8353 381.6625 175.0237 375.9055 177.8712 371.8546 187.3904 368.0895 196.4835 371.5503 206.7875 373.732 213.4377 367.7648 216.7098 358.994 221.6596 351.6905 220.5931 330.5447 220.6513 322.1553 217.5202 312.0474 210.5897 326.1899 205.5811 332.0407 199.1578 334.6613 193.3079 332.9649 190.4488 328.2537 190.1702 321.3546 191.0243 310.4383 192.5108 296.8248 195.4528 284.0019 198.1202 265.3484 187.4087 263.7411 177.7861 263.8326 163.5724 263.2584 156.0881 260.9737 154.2186 256.3309 156.781 252.2919 161.6224 250.8538 170.6163 249.197 188.3303 247.2305 198.247 249.5903 202.0132 248.5122 204.1178 243.8065 210.0552 237.3198 211.8912 230.297 207.3185 225.6583 197.9543 225.5423 180.2326 231.2607 174.1488 231.2646 170.2551 229.2312 166.6773 220.3854 163.2928 211.5639 154.5754 207.3439 147.297 203.5586 143.7077 210.842 137.3243 214.8111 131.1433 210.4784 128.9653 200.9024 124.844 195.7869 125.025 190.1614 130.5539 186.0757 139.1664 181.8538 146.1537 173.329 152.6236 167.6626 154.0079 159.7435 152.1247 152.986 149.0057 148.0276 141.9736 145.9406 136.0275 146.1917 128.6717 153.6223 124.3733 160.2624 117.9896 165.8202 115.4546 174.3583 111.4405 182.3339 107.1451 190.7759 105.9231 196.6771 102.5211 202.1683 98.2749 208.322 92.053 213.568 88.7675 216.0472 85.6183 214.7971 79.6276 208.5877 81.0065 191.5924 70.8386 195.5571 67.2824 194.1142 63.9444 189.4832 61.0999 181.7459 61.4797 170.8751 65.1112 163.0292 66.2316 154.7568 62.819 145.9324 59.084 140.216 54.5711 135.8365 34.4931 106.2563 14.1145 84.7611 8.933 66.4938 2.6154 50.0518 1 30.0698 2.184 17.6844 6.3701 9.8987 15.7152 4.3519 24.6757 2.7412 31.9525 1.9936 39.2991 2.6519 44.5536 1.3774 Z" fill="#CEFDFD"/>
<path d="M 281.3832 452.6871 286.0112 453.2851 286.5611 453.6796 286.0176 454.8385 283.7843 458.4306 282.3388 462.9534 281.1568 464.5678 278.655 467.6078 276.4052 469.4611 273.6083 472.2912 271.589 474.6762 266.8633 475.7501 263.3872 471.9428 264.4581 467.3996 266.42 462.7737 267.2388 461.9956 271.9972 458.6824 272.6311 458.2279 276.601 456.7192 280.2708 453.6182 281.3832 452.6871 Z" fill="#CEFDFD"/>
<path d="M 228.8112 495.1356 233.4272 495.8901 236.0468 499.3106 235.7881 503.9214 235.2092 508.6616 234.9542 513.2661 233.1615 517.8507 232.8161 518.1513 228.5758 522.4254 227.8811 523.0237 223.1549 523.6207 221.7833 522.2424 220.7056 517.4686 220.8505 512.8509 222.2283 508.22 223.8364 504.1313 223.9026 503.6238 225.8704 499.0614 228.8112 495.1356 Z" fill="#CEFDFD"/>
<path d="M 44.0562 6.6612 55.6658 5.5089 66.3971 6.726 77.8883 8.4478 89.7974 11.0423 108.2016 16.1073 119.5191 18.9782 127.4972 22.0806 158.5938 28.2725 173.151 36.0417 185.7228 44.6124 199.8942 56.0317 210.0301 67.25 214.5442 73.0456 222.1702 77.718 231.0827 85.9331 242.199 101.0288 248.3465 107.7779 255.2279 112.3931 272.6234 120.772 288.9952 131.0973 297.5199 134.5843 299.5563 138.8699 303.0075 140.5811 315.6982 141.7832 322.8443 147.1402 339.8794 152.2941 349.6499 154.7542 362.1795 155.0472 372.6065 156.6485 382.6744 159.8349 390.0706 161.6946 401.4034 161.8478 407.4812 158.1525 408.1771 152.7368 406.9471 146.986 409.442 135.6925 401.233 128.9252 396.418 123.6677 397.8064 118.4898 411.655 117.059 418.6575 114.1836 429.8909 111.8613 447.4874 114.8951 455.5268 113.0715 461.6412 112.6209 466.2116 114.0602 472.3579 119.583 477.8538 122.6039 490.5608 124.9086 503.0887 125.565 511.8661 128.6402 520.6334 133.1779 525.5386 138.9336 530.2465 140.4535 535.7441 139.8217 544.2854 141.6782 551.8684 145.478 567.9725 152.6497 574.8896 156.9404 581.4908 158.8422 587.4749 158.9154 624.3864 156.5799 634.9749 152.1744 641.9316 147.0497 654.6207 137.7871 663.7315 128.506 672.2162 115.4449 681.829 98.3368 688.009 93.02 695.6206 88.4732 703.849 84.2013 712.1793 81.9199 720.6686 81.2725 731.7795 82.9004 741.4076 85.4532 748.75 89.4222 769.1389 95.1321 777.0537 99.3395 782.0594 105.118 784.3775 112.2358 786.4351 124.5335 789.8807 168.5321 792.2219 190.8348 793.7737 214.1607 792.6111 226.745 790.4738 234.1794 783.9341 250.0907 770.2117 285.0638 761.5724 297.8579 751.8898 310.1079 734.8835 346.6434 722.033 390.1493 720.0352 399.1161 716.0703 407.4571 706.5536 423.8715 696.8477 442.8134 687.3592 456.1333 683.9838 465.8819 683.6186 472.578 697.546 482.3421 697.8327 489.0739 695.7296 495.5844 690.525 502.3458 686.2126 509.9409 682.6936 512.8613 677.0204 511.8486 655.6385 544.541 643.4882 508.8721 643.2161 503.3939 651.5752 495.2637 657.4227 489.0626 659.6576 485.2028 659.593 478.7933 653.7487 468.8773 649.9124 458.0661 646.771 453.7339 640.8803 453.3383 637.7104 458.5578 636.3316 465.7304 639.9564 480.5754 642.76 483.7537 642.6064 489.3193 637.8378 486.2869 626.4441 472.6722 617.523 470.3848 613.457 477.5567 609.5687 499.3426 609.7775 511.8788 609.5849 506.0565 606.1772 503.6005 600.5263 504.8789 597.4372 508.2089 596.385 510.7516 610.233 514.0506 606.3385 525.2286 599.2241 530.2829 591.963 537.0217 585.9765 545.7774 578.3168 559.9541 572.4101 568.2537 565.3819 572.5601 551.9245 576.7689 537.2558 576.7244 513.1667 575.6896 489.8604 572.8776 473.7897 570.4312 460.3908 570.6002 451.8481 569.5087 443.8803 565.3116 436.2677 560.8938 424.5366 561.559 398.3354 588.4184 386.2322 587.7681 378.9925 583.4228 370.7393 576.9869 363.5276 574.7529 352.3487 573.517 344.9969 568.1419 345.3369 556.8109 348.2055 548.1124 351.7414 541.2928 355.2353 530.7111 350.7764 527.1285 345.5321 527.926 333.2674 527.838 324.3824 522.3926 321.5121 519.3174 319.5305 512.0184 318.3118 500.3057 313.2615 492.601 311.1439 486.4496 313.157 481.0959 317.1349 470.5399 317.1079 464.3457 313.9548 458.9658 309.4969 453.8239 286.7302 418.433 274.4963 416.5579 266.9668 413.5198 259.0267 410.5627 252.0184 408.3606 245.7149 408.6399 229.5286 417.503 216.7388 416.2411 208.3873 409.4312 201.6172 404.8987 196.8624 396.1067 202.2553 389.9777 209.7074 384.8471 220.4422 371.2575 223.9509 363.3839 228.6585 356.5475 229.988 317.9462 231.459 312.3915 238.0424 303.3715 240.0035 298.7568 235.5181 294.2819 225.2743 294.3434 221.6126 297.6311 219.5019 302.7288 212.714 309.5373 207.5602 316.5891 202.5978 321.3809 199.9067 311.8062 202.7263 299.1275 204.2795 287.641 204.7724 269.4938 203.9868 256.9173 207.0766 248.6994 213.3478 239.4546 216.5532 231.6115 215.1761 224.2247 210.7962 217.1898 207.6104 212.7894 203.5986 211.7184 192.3573 211.5416 185.55 212.6678 178.6574 217.7768 173.4962 218.4755 170.2105 214.978 163.8377 206.7569 151.3019 198.1386 146.375 196.286 137.3376 198.5401 139.2865 190.0026 145.1716 180.488 161.0397 171.7157 162.5536 165.052 163.0763 155.3743 162.9723 149.0606 161.0265 145.6417 155.5842 137.5465 148.5203 133.0314 143.9251 131.5343 138.536 133.1411 128.5901 148.8413 117.4886 163.5605 108.0978 180.3597 104.67 189.2102 100.3426 197.1109 92.8435 204.3098 87.6616 203.5573 85.3906 197.1736 86.8587 185.9627 86.1855 182.1875 82.9012 183.0123 76.7734 186.926 71.6241 186.6273 67.0695 179.8325 67.8575 167.1311 69.2227 156.7819 68.1932 145.8658 64.7697 136.8664 59.6183 129.2464 50.0958 117.386 44.8399 109.2447 41.0522 100.3216 37.1904 93.5075 32.4789 88.1554 23.9537 78.595 17.2366 69.0866 13.4328 61.9433 10.0928 54.4141 7.5395 45.732 5.9994 25.3037 7.1803 18.3826 9.5365 14.5081 13.0647 10.5994 18.5134 8.4041 33.0093 6.6926 44.0562 6.6612 Z" fill="#5EF8F9"/>
<path d="M 418.1924 156.2658 418.9909 156.4291 419.0244 160.6647 418.2263 161.0098 417.0803 160.6783 416.5998 156.6147 418.1924 156.2658 Z" fill="#5EF8F9"/>
<path d="M 236.726 262.6895 238.2025 263.0787 241.0724 267.152 242.7824 267.7421 245.4757 268.6401 249.8301 271.4978 250.8504 272.5052 250.7642 277.0233 249.6142 277.9157 245.1058 279.7459 240.5695 279.813 236.1758 277.9641 234.1976 276.454 231.8712 273.8406 229.2002 271.868 227.6325 267.7868 227.3342 267.217 227.5853 267.2555 232.1113 266.1947 235.6501 263.0551 236.726 262.6895 Z" fill="#5EF8F9"/>
<path d="M 329.066 363.3419 333.5667 365.5236 334.2259 365.9092 335.8712 370.5084 333.4495 372.0988 328.8731 375.1105 324.2647 372.0412 323.8221 370.4523 324.369 368.4093 326.4556 365.7739 329.066 363.3419 Z" fill="#5EF8F9"/>
<path d="M 645.6836 553.8683 650.3949 551.4003 655.0875 553.7123 653.929 558.3505 653.2558 563.0742 651.1815 567.1657 650.3188 567.8163 646.5981 569.7727 641.6946 569.3459 640.2565 568.3748 637.3443 564.0467 639.1597 559.1612 641.114 557.3216 645.4251 554.2514 645.6836 553.8683 Z" fill="#5EF8F9"/>
<path d="M 39.5864 10.2145 52.2939 8.445 64.0222 9.5245 76.4375 11.5876 89.507 15.4474 106.2987 22.0394 114.1681 28.1416 116.711 38.9234 114.6852 51.1129 119.0542 52.2514 121.5848 47.1231 125.3243 42.3642 133.9976 40.2414 144.5175 39.0886 151.017 39.6633 157.3 41.8394 171.8501 49.2586 184.2968 60.6909 192.3061 68.4271 192.3221 75.9089 198.4008 87.4272 214.6214 97.1512 220.519 105.0745 225.354 113.7975 228.5392 119.4817 231.3936 121.3408 239.1194 124.6804 250.4052 130.21 259.2645 135.7767 271.2943 148.3359 300.5064 172.3673 305.3924 171.3068 312.1435 170.0534 319.125 171.3398 325.3928 177.4769 325.609 183.8177 322.3801 187.5023 315.6027 189.5154 316.0691 195.2128 311.7114 202.9079 309.077 213.6831 308.7103 220.5401 321.6357 234.1917 326.2534 233.1569 331.2555 233.5094 334.6266 236.3192 341.3468 243.1142 348.0183 247.6264 361.4718 251.5393 375.3537 252.0347 398.1496 254.3879 410.4475 254.7965 419.1254 252.0086 427.8297 245.3696 434.4566 237.8539 438.4169 229.3422 437.296 217.8671 437.2285 204.8464 436.1398 198.8843 443.805 189.7981 452.774 181.4743 468.2172 173.1057 482.9525 160.8266 495.8665 149.6916 503.1933 148.7451 507.3333 150.4187 517.8257 152.4859 529.9611 152.2315 542.0936 152.6958 558.9625 158.7248 570.8074 170.4488 580.1176 172.6683 587.4318 170.9959 632.7092 157.8566 645.8274 148.6387 654.4096 142.539 659.8838 137.0885 666.6916 130.0579 672.3207 122.392 677.7765 114.3805 681.5324 106.4287 687.5426 97.6778 695.8546 92.5967 705.6135 87.8861 716.2576 85.0781 724.9642 85.7503 735.4374 87.741 753.8409 94.3091 765.1114 97.0755 773.4958 100.9643 779.1965 107.0474 782.2462 116.9783 785.2245 142.3672 787.2593 166.1668 789.5936 190.8203 790.1288 212.833 788.1079 226.9558 784.572 235.5513 776.5169 254.2306 768.3004 273.5407 758.4119 292.6447 745.3929 308.8376 737.9685 324.0625 728.3426 340.4538 717.8991 362.3998 708.8865 376.741 704.9391 386.1278 703.9123 400.4858 701.8556 411.8685 698.162 422.8722 693.747 430.1289 685.7778 436.3266 678.2858 437.6442 672.9764 434.8272 672.0362 427.6556 673.0869 421.6693 677.694 413.7437 683.564 406.5828 690.5615 389.2719 697.5644 369.2057 698.1405 362.1769 694.6787 354.2739 698.5771 345.2509 698.0339 331.1877 686.5972 331.6244 678.5741 336.8954 675.4349 341.798 678.7188 347.469 684.3863 351.0361 681.3454 355.9246 671.7626 358.6177 662.337 365.781 654.0038 375.4631 648.4182 383.6922 641.0971 390.6092 638.9434 401.314 635.6194 408.8761 628.0258 428.9763 539.857 559.044 527.4964 561.9354 512.8246 561.491 495.0473 555.6571 471.5475 546.8018 459.1297 546.7552 449.5378 547.72 425.7918 546.8008 406.2381 555.5232 398.6986 562.5948 393.7351 572.1847 386.9083 575.1328 379.7183 571.2869 374.4754 566.4366 360.3538 565.691 355.2804 562.6346 354.0312 558.3534 355.5223 547.7241 360.2144 537.6973 365.2534 529.3537 362.7828 520.5842 352.896 520.054 341.2514 521.2497 333.587 516.0834 330.5802 509.9399 327.5678 496.5925 319.4926 491.2996 317.1488 488.2315 317.6352 483.1152 322.2502 476.0278 324.3895 472.5526 325.6479 464.0326 325.6295 457.1477 323.5278 453.4008 318.6767 449.6403 315.2827 444.0645 313.9098 434.8227 312.36 426.4215 312.8587 419.5444 313.1136 412.1271 314.8055 408.2704 323.4859 402.8104 332.2895 401.1089 344.9896 399.2027 353.4496 394.2345 355.3269 379.4406 358.3679 368.8379 356.1694 356.2847 348.9215 346.7791 339.5695 341.095 330.4417 343.6714 323.6181 349.2915 319.9842 356.8419 315.3336 366.5631 307.0333 372.8634 291.5947 383.6905 288.9672 391.0832 291.8934 397.4184 295.4359 401.89 294.0575 408.0067 287.1599 410.679 280.7982 410.4236 273.051 405.6602 271.8356 401.0228 276.3038 397.3177 282.9317 388.4301 269.0817 383.3639 263.7414 392.5094 251.2463 390.0155 232.7969 392.1826 227.1534 387.0513 229.3321 378.4601 234.6256 374.4764 241.4451 374.5088 247.0306 367.7313 247.1193 358.3315 242.2581 350.3782 240.1919 345.3928 241.2617 339.4279 243.3066 332.1964 247.2127 307.7626 253.4615 300.2057 256.7052 287.0272 262.2073 277.0947 268.0205 269.277 277.2773 260.6209 278.1412 255.1652 272.6492 253.6693 256.2079 244.5066 241.8536 256.2827 234.8639 255.4393 230.918 257.9869 226.2328 260.2355 222.3581 258.0549 215.2686 249.9133 215.8589 244.0693 220.1634 233.2571 220.0108 224.3377 216.0716 215.3096 215.6853 203.922 211.0517 201.0235 204.5441 202.4682 195.5734 203.7641 183.974 206.2238 177.4287 209.1041 171.6272 208.249 168.5259 205.8347 163.7559 201.9916 162.2413 198.143 166.7763 189.3043 167.8088 182.3403 166.6018 174.5407 167.0125 152.2513 162.5357 138.1422 159.3063 132.3285 155.0868 128.3537 145.8312 121.1793 140.1574 112.7424 140.1003 97.9142 135.8637 90.5205 131.1524 92.1977 132.3811 94.4506 135.7578 103.3818 138.2185 108.5701 138.5706 113.9001 137.2167 126.3168 133.2215 135.2744 128.5265 144.9485 123.4126 153.2956 118.3699 159.3716 113.533 168.1637 108.416 176.0019 103.1782 186.8403 97.8047 194.8006 93.7377 197.9471 91.1347 195.4221 90.2004 188.8964 91.5101 183.0168 91.3133 176.7074 85.901 175.8422 77.8157 180.063 73.0149 177.8896 72.065 174.366 73.075 152.0717 71.9713 140.6143 69.0849 133.063 60.6402 118.456 53.9578 110.4429 48.9127 101.4981 38.7648 85.249 32.7199 78.1329 27.5744 69.4957 17.0802 56.1512 12.5765 45.9921 10.1012 35.5465 9.5407 23.9067 13.7434 13.948 19.3918 11.2839 28.5156 9.8576 39.5864 10.2145 Z" fill="#57D8E0"/>
<path d="M 430.6726 118.3705 434.9704 118.7809 435.6382 119.1001 439.0471 123.0363 439.4153 124.3687 439.9373 127.2089 439.4016 127.8959 436.6121 127.2968 435.1593 126.8279 430.7926 124.571 429.4416 123.2541 428.0489 119.2554 430.6726 118.3705 Z" fill="#57D8E0"/>
<path d="M 361.7918 190.0899 366.1243 190.612 366.5943 190.6305 368.1963 194.9642 369.5748 199.2904 368.7001 203.708 366.1299 205.4939 361.7172 205.4837 360.134 203.5302 358.5402 199.3489 358.3911 194.8937 360.1168 190.6991 361.7918 190.0899 Z" fill="#57D8E0"/>
<path d="M 217.812 403.8535 221.4701 405.2493 222.4267 405.559 226.3704 410.1139 222.1426 412.6586 217.5019 410.9526 216.2439 409.7251 216.1885 405.1862 217.812 403.8535 Z" fill="#57D8E0"/>
<path d="M 679.899 486.6933 684.6221 485.6104 686.6337 486.4356 689.2234 490.9688 686.3063 495.8809 685.2384 496.7818 680.6361 498.7034 675.9558 499.4097 671.2768 500.9659 666.3768 497.0051 670.8247 493.4244 672.1016 491.9755 675.3682 489.6333 679.4849 486.946 679.899 486.6933 Z" fill="#57D8E0"/>
<path d="M 653.286 516.3914 657.8613 513.0256 660.107 516.0891 659.5193 520.8461 658.3689 523.2835 657.3589 521.0441 653.3424 516.7267 653.3142 516.559 653.286 516.3914 Z" fill="#57D8E0"/>
<path d="M 56.3209 12.0905 69.5033 13.8098 78.5636 17.2215 85.3894 23.5989 91.4147 32.2512 93.9915 41.4677 92.3845 53.7036 96.367 64.0931 102.3857 73.5128 113.4682 87.3565 127.8208 100.532 132.3823 110.3385 133.7073 123.4713 129.8297 137.7235 125.7302 146.8529 119.3214 155.3819 114.1946 163.9103 108.6242 171.6161 103.6163 181.6181 99.408 185.4359 96.7187 182.8955 94.4921 173.5183 91.5664 166.7828 85.1579 169.0049 81.4732 170.41 78.331 167.4913 78.2366 155.1053 76.6784 141.7388 69.4934 120.8425 65.3621 111.9685 60.2336 105.5904 49.7477 89.2179 45.3092 79.1871 43.3649 72.7323 45.4784 66.3365 48.1784 59.6349 44.8132 49.0946 40.3068 38.8113 30.9564 43.6067 23.6863 43.7931 19.5847 40.1619 15.4078 36.4734 13.5663 31.1954 13.3632 24.6081 15.6941 18.1893 18.1637 15.6215 23.6631 14.6669 47.7779 13.4177 56.3209 12.0905 Z" fill="#57D8E0"/>
<path d="M 142.8105 47.6844 152.2135 49.5365 158.9954 52.1593 166.3011 55.3708 172.2298 59.3796 181.9205 71.5417 188.6716 84.4886 195.1592 100.7648 196.2019 107.1551 199.7102 113.8827 200.9393 124.2746 205.5822 130.5252 210.3789 136.2642 214.4141 143.9065 219.5906 156.741 219.2836 167.2299 217.7614 173.8888 212.8465 182.0393 207.4962 186.2877 194.0229 194.5606 186.4692 198.6707 177.9697 200.4489 172.7209 199.5284 171.0224 195.3087 171.7216 184.5908 170.2773 145.6618 163.9294 131.1521 155.2878 119.3453 151.9589 110.697 150.5707 102.8778 147.9346 94.7446 144.6161 89.0285 136.5521 76.6461 132.4754 69.2844 130.332 64.8735 130.2957 59.8475 136.2926 50.8522 142.8105 47.6844 Z" fill="#57D8E0"/>
<path d="M 704.5414 99.0596 719.0253 94.6172 734.7096 94.7007 746.1046 96.1683 757.8332 98.6755 769.1765 103.1996 775.8535 110.7581 778.8346 124.15 780.8378 137.7394 782.9383 155.857 783.9671 173.1054 785.3999 190.4184 785.5071 204.9165 784.1875 216.6123 780.1352 227.1792 767.3366 247.2851 763.0843 256.5091 757.0054 266.7699 752.1254 278.7868 748.7702 290.3297 740.6397 297.9377 733.1503 306.7296 730.0362 310.2208 724.4389 311.6542 721.5486 309.5299 719.5583 302.7172 716.3125 288.1938 706.9041 289.1008 693.762 294.1851 686.6693 299.8886 668.739 315.6315 660.8822 319.8867 656.1048 324.0109 646.8177 332.6648 639.5766 340.3313 629.3988 348.2726 623.3779 357.7062 627.4311 369.472 616.0135 389.5168 612.7631 399.7979 612.7595 407.3004 610.7672 415.0962 588.9908 460.4901 583.605 472.0598 576.7343 483.4132 562.5855 498.5952 542.3723 512.6057 531.6683 521.4132 522.3093 527.2883 512.6049 533.6289 505.7913 535.6227 498.2949 534.2193 477.9269 523.7184 469.8881 521.5126 461.6676 521.9973 450.3734 527.294 431.8757 528.3654 421.8152 533.7541 412.7631 540.936 401.9219 547.0258 390.3732 552.6812 376.1004 557.3339 370.9134 558.5601 365.0083 557.3745 362.3804 551.6968 364.2023 543.2674 377.4854 523.8912 383.3268 513.6103 384.4429 510.5583 379.6568 508.0728 351.818 512.8424 319.5236 426.231 325.9319 415.2448 330.3831 411.8886 338.0144 409.2129 352.4402 407.8443 362.3518 402.0197 369.479 393.2736 374.9932 384.618 379.3165 371.2404 378.7188 362.231 374.0089 351.3783 370.3838 342.6163 369.4896 337.2223 368.9834 328.3789 365.4114 321.1596 362.8872 315.0085 358.4836 310.8512 349.1632 304.1927 345.4444 300.886 340.1016 299.2062 334.2687 301.4552 331.3091 307.1579 329.5575 322.1215 309.8977 333.5333 307.0268 337.64 308.2892 341.9078 310.9137 347.8424 312.732 354.0549 310.7291 360.6659 303.0675 365.949 295.1664 367.004 289.8123 369.9884 285.1168 373.0163 280.5262 367.8742 280.6362 351.8948 279.8996 344.517 277.738 340.6406 273.7399 340.2154 271.8217 342.965 272.5748 352.268 271.9924 360.2067 269.8163 362.5798 266.0966 360.2544 260.8777 350.9523 252.3371 351.6658 247.4898 347.9181 247.325 342.8398 250.3834 339.0448 253.9094 334.6052 256.2294 326.6998 257.2439 318.459 259.4012 313.8439 261.5715 305.7452 261.969 298.13 263.1706 286.0884 267.8097 279.6848 271.905 276.5115 282.3147 271.4143 292.7987 267.1139 303.8709 269.3665 312.0345 271.7978 319.7125 272.5769 329.2517 277.759 341.2945 274.0154 352.8082 276.8698 363.5156 282 374.0092 288.5822 384.2151 295.7577 384.4656 302.159 386.9517 307.3961 410.7089 315.9194 414.4917 313.6648 417.5935 308.6365 421.3846 296.6816 424.4151 291.6397 429.0977 287.7762 439.5654 282.0424 446.4562 274.2581 455.0519 267.4088 461.6591 257.3072 466.0667 247.6241 472.1109 237.845 476.2071 227.8084 478.682 202.2466 482.6288 191.3818 490.8958 181.5805 500.1711 174.5448 505.2633 171.385 513.8769 168.8984 521.5254 167.4653 528.6224 169.6293 540.3037 173.6204 559.1793 184.6509 562.5415 186.6093 570.3428 186.8962 582.773 185.2124 609.5552 180.3803 614.6991 178.921 622.1036 174.2215 631.073 167.4086 640.8793 161.0264 648.3522 154.1823 663.9914 139.9569 672.0489 131.7137 678.5569 122.9117 684.4623 114.912 688.2881 106.0289 704.5414 99.0596 Z" fill="#57D8E0"/>
<path d="M 99.5795 117.2355 101.3431 119.3514 103.68 121.9848 104.3079 123.9369 105.2107 128.2681 105.4124 132.5742 104.7935 136.8238 103.9533 141.0136 103.2275 145.2401 101.7026 147.9977 98.9331 144.8876 99.7871 140.6959 99.86 136.2798 98.4101 133.3701 98.2381 131.8999 96.8572 127.5876 97.5169 123.3509 98.2898 119.1522 99.5795 117.2355 Z" fill="#57D8E0"/>
<path d="M 240.1034 170.1492 248.4707 172.6226 256.3227 179.7787 265.4448 197.2123 282.8268 202.5932 287.4464 206.552 289.3948 210.8988 289.6313 217.824 287.7173 224.3551 286.074 232.8225 283.6782 238.9662 277.5091 241.9167 273.3111 241.6046 268.446 237.5546 266.0822 232.5822 260.8862 223.9478 258.3967 221.3681 251.5229 222.1709 246.8418 231.7598 242.0318 237.505 238.3658 242.017 233.258 244.2155 226.2468 244.7026 225.1612 217.8647 228.2245 200.4538 226.7933 187.7288 227.5284 181.0933 231.3053 174.7925 240.1034 170.1492 Z" fill="#57D8E0"/>
<path d="M 260.4241 367.7864 261.9201 369.177 264.8048 371.7659 265.8046 373.9648 264.7395 378.5413 264.7203 378.713 263.3474 378.5589 260.0729 378.0116 257.9291 373.7605 259.1544 369.205 260.4241 367.7864 Z" fill="#57D8E0"/>
<path d="M 558.4808 511.7232 558.8009 511.8616 559.1213 516.4543 558.5315 516.6862 557.7551 516.5945 558.1956 511.9239 558.4808 511.7232 Z" fill="#57D8E0"/>
<path d="M 60.2444 16.3758 66.1997 17.3389 70.5911 19.8056 77.1031 26.4924 83.0857 36.6071 85.4104 47.5521 85.467 54.5919 87.0576 59.158 92.1291 68.0085 103.4448 85.9464 121.7927 99.2035 127.647 106.2557 131.75 117.5204 131.4188 124.9699 129.6142 132.2164 126.4353 141.9291 113.8865 161.8766 100.3053 179.0918 97.2264 173.5872 95.6006 161.8922 96.4099 156.9613 100.3065 153.2824 106.3459 145.4202 107.8038 130.9606 107.389 125.714 105.1653 119.7671 98.3124 111.9021 95.8464 109.0336 94.9649 113.9004 94.3341 127.5435 96.5301 133.1697 96.4527 140.43 90.2276 150.6919 83.412 152.393 75.709 129.9913 72.7437 118.3221 67.9533 108.5362 62.1982 98.7399 55.3268 89.7499 51.2276 79.3468 51.3062 71.5 57.0271 62.1295 58.6074 55.7555 57.5248 50.0348 52.1942 30.327 51.5296 23.8763 54.6624 17.9874 60.2444 16.3758 Z" fill="#57D8E0"/>
<path d="M 138.0497 56.5041 143.0284 53.7474 147.7647 53.8278 156.7671 56.5388 167.9513 62.9415 177.7873 73.1463 184.2742 84.1975 187.4885 91.9262 187.5623 97.2555 185.123 103.764 186.4838 110.5982 187.0059 118.2932 185.6875 127.1643 183.777 142.1737 188.0893 147.4158 189.3592 152.7112 189.7822 162.8768 191.8821 172.6958 193.8195 178.129 192.5426 187.1179 187.557 192.5935 182.1853 194.3089 177.363 192.0898 174.4871 183.081 174.5812 167.3656 176.4554 162.0096 176.728 153.0052 176.4527 142.8529 172.1341 137.3762 166.3357 126.8427 156.9867 115.2381 153.8228 100.9189 149.148 86.0509 135.5174 64.424 138.0497 56.5041 Z" fill="#57D8E0"/>
<path d="M 743.843 102.7781 749.3596 100.9741 754.6483 101.7144 762.0166 104.5917 768.0814 109.869 771.3006 119.194 775.9157 136.5487 779.8494 158.365 779.7746 181.7737 779.1772 192.1262 776.2177 201.0697 767.8536 213.1493 761.086 220.6634 758.1808 229.8412 757.2618 239.6699 753.8711 248.596 749.431 253.6616 744.4533 261.726 736.7432 267.9899 724.6787 268.7186 714.3099 269.6138 708.1398 271.6993 698.1041 276.638 690.105 281.8955 676.6173 292.9056 650.0221 312.3311 641.8866 317.2206 637.0066 324.6243 628.0091 339.3863 617.9729 351.7598 609.4204 366.9398 601.6172 382.088 601.6084 394.6522 599.4808 402.6279 594.9714 412.3149 593.3963 425.0517 591.0627 431.445 583.4749 439.1975 572.0473 451.1566 565.9126 459.2945 565.3267 467.3026 564.5358 473.6 561.7173 477.8712 557.024 483.0177 545.9962 496.1499 515.9206 515.6412 506.525 521.0801 500.1389 521.6606 493.6125 519.8315 485.8083 516.5041 478.1285 511.7618 470.9952 507.9795 458.9095 508.0971 442.4652 515.7281 426.6283 524.5163 413.368 534.6458 398.3859 543.4361 379.1882 551.6391 373.8722 552.7042 369.5716 550.5562 368.4543 546.1123 370.5123 538.8645 377.0552 529.3318 388.7551 515.4086 392.9632 506.247 390.6229 501.0895 386.141 499.6523 374.5427 501.2885 366.1714 504.6438 354.9858 505.4506 349.4127 505.2238 345.4551 502.6553 344.2955 491.9883 350.9719 486.1154 357.1955 478.9904 358.7858 472.0132 356.9701 465.5895 349.9299 462.207 339.5013 459.9931 337.1411 452.1252 332.7645 444.6498 325.0756 437.9841 323.1225 430.2669 326.1968 422.3456 333.0521 417.0566 355.1817 412.9694 361.0484 410.7813 366.4533 404.9258 386.8929 375.2044 391.279 365.7653 393.2931 357.4913 392.8982 346.9334 397.2894 336.9526 416.1338 330.6079 429.5996 320.4417 439.9466 308.6506 453.279 299.4386 461.9572 293.9156 468.0147 286.0351 477.1066 270.1815 485.0365 255.7187 490.2021 241.7459 499.8536 227.5957 517.1717 219.2247 531.3947 213.3244 536.2151 211.9396 541.3195 213.0904 547.8028 216.4748 555.044 221.6387 558.8723 218.0326 562.1013 199.2704 571.1354 195.7676 583.743 194.5823 595.4513 194.4444 606.7617 193.2138 613.3798 191.5107 625.0877 190.3677 635.312 186.6064 641.7498 181.7888 647.8314 176.6521 653.1012 170.2529 662.1193 158.9322 673.6335 148.3028 680.1308 142.6532 687.3859 139.2144 697.9078 137.3046 703.6194 139.2746 707.5616 142.6021 712.2756 143.4055 718.7909 142.7875 722.567 140.2699 731.8006 131.6494 737.5982 123.2784 743.843 102.7781 Z" fill="#57D8E0"/>
<path d="M 198.1144 137.8533 204.948 139.1943 210.0435 143.6141 212.8279 148.1 214.723 153.1077 217.1917 160.981 215.9014 169.5766 213.7885 174.7459 209.4466 176.9121 204.9752 176.4354 199.859 173.0354 197.3503 164.3831 197.9587 155.8249 197.5915 148.1279 193.6107 142.8278 198.1144 137.8533 Z" fill="#57D8E0"/>
<path d="M 235.3487 183.0489 239.8264 179.5992 242.6651 183.6608 239.5393 187.6796 235.2688 183.5552 235.1787 183.368 235.3487 183.0489 Z" fill="#57D8E0"/>
<path d="M 238.7923 207.6621 241.9068 209.6903 243.002 210.546 245.5013 214.3799 244.7664 218.6115 242.8925 223.0275 242.5265 223.8426 240.0378 227.3004 237.9072 229.9403 234.2317 227.1236 233.6863 225.8221 233.3095 222.6329 233.2418 218.2749 233.6852 213.8246 234.1732 211.4681 235.3251 209.5622 238.7923 207.6621 Z" fill="#57D8E0"/>
<path d="M 264.9627 213.219 269.4694 212.2296 273.6164 215.1548 273.7161 215.3396 276.26 219.6167 277.6968 224.1067 277.8406 224.988 278.7836 228.5559 278.521 233.0256 277.6132 234.4802 273.1581 235.5208 270.8795 232.8233 268.8973 229.8107 268.0926 228.3259 266.1983 223.7602 264.8382 219.9523 264.421 219.3798 264.2651 214.8599 264.9627 213.219 Z" fill="#57D8E0"/>
<path d="M 271.7891 285.3654 282.7014 283.4377 289.6332 287.4484 293.665 296.5233 298.2901 301.2959 308.1672 304.5872 316.1285 309.5581 316.2297 315.1156 311.3946 323.0672 300.7248 333.1147 299.5638 338.7435 300.9816 344.0759 304.8084 351.5163 306.5547 356.6918 301.635 361.8379 290.5409 363.6312 285.6539 361.7776 283.9109 355.873 283.8676 337.2693 286.3916 330.7405 282.1881 323.5369 275.7237 318.1591 275.632 310.4944 275.4522 306.1258 270.9826 300.4076 268.0107 294.4968 268.8875 289.2049 271.7891 285.3654 Z" fill="#57D8E0"/>
<path d="M 63.9499 23.1945 67.7869 27.9258 71.8308 30.2466 76.4 34.6586 79.4905 41.165 79.0986 46.6527 76.3664 50.2957 82.2718 61.449 89.2279 72.0037 91.7336 76.5038 93.474 80.9296 91.1531 84.9587 84.7456 85.566 79.9796 87.9188 79.8147 94.2526 83.5826 99.9006 89.9713 109.5346 91.7731 114.1682 92.1449 122.7993 95.4692 135.5193 93.4507 141.4984 88.7662 146.5118 84.4208 146.627 82.6389 143.5836 80.8584 136.6071 77.479 122.8742 73.9738 112.6505 67.1613 99.3419 60.2021 90.5473 55.1276 78.7646 55.5496 73.5533 58.0117 69.608 65.4275 58.5275 70.2684 52.9576 66.3834 48.2374 62.4529 41.1764 61.7158 31.1912 62.4258 24.5738 63.9499 23.1945 Z" fill="#50B9C7"/>
<path d="M 146.4522 59.1384 154.6312 60.0941 159.0176 62.4198 167.0098 71.7741 175.1429 75.433 178.0454 79.7016 178.7977 92.5587 179.7191 99.9856 182.1219 108.6123 183.1816 112.6371 182.7016 121.1628 180.4405 125.1656 177.0184 128.0491 172.6209 126.8922 164.3742 119.7851 160.4021 115.0218 157.4877 107.0274 155.452 94.3986 152.2697 81.8429 145.677 72.532 141.8635 65.8188 142.0047 62.4107 146.4522 59.1384 Z" fill="#50B9C7"/>
<path d="M 97.2899 90.0478 107.5705 93.1593 114.0939 97.1802 120.0261 101.3327 126.2666 107.4524 129.3369 115.1205 129.7985 121.7312 126.5258 138.4309 119.0056 151.5837 109.2247 165.3876 103.5682 170.5692 100.5617 173.2849 99.2258 170.9479 99.5137 160.3474 102.512 153.736 106.6707 147.2853 108.7187 137.0598 109.02 126.7126 107.5086 119.9184 97.4927 106.3497 94.7992 100.0476 94.9988 94.8095 97.2899 90.0478 Z" fill="#50B9C7"/>
<path d="M 750.4823 127.0452 754.5985 124.2738 759.0793 127.82 759.4044 128.4306 761.4696 132.0576 763.8148 136.1342 764.8973 139.0141 765.3289 140.3111 766.4532 144.4413 765.5312 146.1889 761.4396 148.975 758.5576 149.7319 757.2345 151.0579 754.6725 150.0832 752.4763 145.9378 752.3536 141.6718 751.7235 137.3916 751.2387 133.9636 751.0892 133.116 750.5617 128.8094 750.4823 127.0452 Z" fill="#50B9C7"/>
<path d="M 206.3819 144.4757 209.3754 147.8045 210.6075 148.7252 212.4001 152.3383 213.8581 156.5791 214.4535 159.7989 214.7296 160.8864 214.2167 163.7353 214.09 165.0972 213.1898 169.4382 209.4567 172.9221 205.148 172.299 201.8461 168.8976 201.1061 165.2839 201.005 164.5702 201.2118 162.8746 201.4652 160.3215 202.0735 155.9319 202.8774 151.7575 204.0194 147.6523 206.3819 144.4757 Z" fill="#50B9C7"/>
<path d="M 179.0986 169.9009 183.5524 168.7393 187.6195 172.3621 187.735 172.3855 189.5892 176.942 189.449 181.2732 188.2273 185.5662 186.9209 187.2252 182.4445 188.2401 178.4806 184.9725 178.2818 184.756 177.4566 180.5606 177.6416 176.2296 178.4442 171.8575 179.0986 169.9009 Z" fill="#50B9C7"/>
<path d="M 753.3087 154.8281 757.8267 156.802 760.1665 158.2088 762.5287 158.8855 767.0815 160.8259 768.0281 161.7785 771.6511 162.7497 773.8807 165.6252 774.1985 170.0427 773.8761 174.4923 773.1302 176.9094 771.5743 179.2284 769.3324 183.0311 768.2066 183.9368 765.2755 186.8634 760.902 187.7072 757.9994 185.0129 756.5487 180.7838 755.6219 179.4531 752.6908 176.5876 750.6966 173.431 749.6479 172.4976 749.0735 168.1859 749.9082 165.593 750.546 163.5988 751.8848 159.0492 753.3087 154.8281 Z" fill="#50B9C7"/>
<path d="M 671.4273 174.8238 681.1622 173.528 688.603 173.7883 694.3519 177.448 699.3172 182.7146 703.9512 188.9516 708.2626 198.1196 715.3193 206.9188 730.2076 213.3646 733.3033 219.298 733.0953 225.9847 729.0273 240.7193 724.6137 248.3527 717.9467 254.2224 705.0134 261.7895 696.4443 266.37 691.4664 270.5714 666.6092 287.4487 651.7922 295.9471 640.411 306.4101 636.3813 312.2547 633.5999 319.2618 628.4993 331.9294 609.8939 356.5456 602.7924 369.1655 594.4911 381.3651 588.9991 396.7642 585.304 404.2198 584.9818 414.8711 584.6758 425.8566 581.4014 432.0015 569.7642 444.1549 561.4944 456.674 555.7832 471.0889 546.3938 483.051 541.8263 488.6411 534.6495 494.0969 522.1629 501.8195 509.6507 510.9575 498.4787 512.027 489.9749 509.275 482.3417 505.0615 476.9901 500.3597 476.8019 489.9228 472.6054 486.1713 459.0982 495.9492 435.7713 514.8375 407.6821 533.9658 395.9403 540.5263 389.2531 544.012 379.285 547.0603 373.9736 542.3534 375.988 535.603 385.2761 523.5363 394.7083 512.0731 398.5414 506.1334 399.2211 496.3948 396.4211 491.9208 389.6943 492.6941 372.8397 497.4818 361.224 499.5229 356.1111 495.7433 357.2144 490.3055 365.1875 474.4665 367.1691 467.6617 365.0923 459.3472 356.2677 457.3104 345.376 456.3247 341.5094 452.0063 340.621 440.9367 341.4073 431.148 343.938 426.271 359.1298 416.752 364.8115 411.951 369.8043 405.3777 378.2473 392.6527 388.3084 380.589 406.1285 356.5608 414.1941 345.492 424.507 334.3479 435.2008 325.0138 447.4228 315.1959 473.4874 300.4692 478.747 294.9947 479.5498 284.2213 481.8152 277.171 486.852 270.4631 504.716 250.1638 512.8454 246.1993 518.2023 242.2612 524.197 236.333 530.7783 233.0763 541.7002 233.6214 549.1222 235.7028 565.1195 241.1485 571.3439 238.2209 576.9768 231.343 578.5673 225.2035 576.9718 218.4892 572.7726 211.4619 571.3015 203.703 576.4309 202.2679 581.1464 202.9509 600.1849 208.256 615.9332 202.1956 629.4856 199.8179 640.2523 196.4442 646.3676 192.7215 653.8335 187.4369 659.9182 181.7003 671.4273 174.8238 Z" fill="#50B9C7"/>
<path d="M 284.8243 302.9453 289.2499 304.432 290.3314 305.4066 293.033 310.0096 293.5536 312.8382 294.0439 314.6214 293.4928 319.0863 293.3618 319.074 288.854 320.5535 285.4336 318.9983 284.4203 318.5485 280.7567 314.3463 281.8924 309.77 283.8007 305.2736 284.8243 302.9453 Z" fill="#50B9C7"/>
<path d="M 288.4552 339.806 292.9211 340.9233 293.7434 342.2153 295.7578 346.7412 297.236 351.3885 297.3704 351.4004 298.9975 356.0573 297.1068 357.4542 292.5398 358.2585 287.9863 360.2644 286.0861 355.9121 286.4026 351.251 286.7201 346.5896 287.172 341.9411 288.4552 339.806 Z" fill="#50B9C7"/>
<path d="M 150.4422 63.8044 154.6314 64.3805 157.1999 66.0693 158.4551 70.3348 154.0893 73.864 149.9886 71.0813 148.9632 69.4353 148.1192 65.4267 150.4422 63.8044 Z" fill="#50B9C7"/>
<path d="M 73.6162 62.0662 79.4392 65.0911 83.7211 71.8029 83.578 76.8775 80.8962 79.7149 76.295 83.6933 75.7818 90.982 76.0696 94.8092 79.2308 100.1035 87.0783 110.7651 90.1709 127.7077 93.9343 135.7737 91.8344 139.9493 87.9471 142.7002 84.275 141.05 81.5131 130.5649 81.0217 124.3487 78.1362 114.3459 72.3916 99.8306 62.9519 88.4551 59.1785 81.7949 59.5741 73.5464 69.1396 64.6048 73.6162 62.0662 Z" fill="#50B9C7"/>
<path d="M 162.3379 78.5197 166.5206 81.6045 170.4289 87.3519 172.3637 91.59 174.6791 95.7407 177.2777 104.2558 178.8552 108.4034 179.9777 116.7648 177.2314 121.3424 171.0981 120.3045 164.8639 115.7365 161.9633 111.406 160.2166 107.1718 158.9491 98.7247 158.2205 90.594 158.3507 82.3472 162.3379 78.5197 Z" fill="#50B9C7"/>
<path d="M 101.2545 95.488 109.5292 97.6044 113.8507 100.4449 124.7747 108.618 127.3718 112.8352 128.3213 121.5099 127.6483 129.7591 125.3618 138.2959 119.0428 149.6495 112.9622 158.9653 108.785 162.9581 104.9999 164.5683 102.9627 162.5732 103.8757 154.124 106.5861 149.7442 109.3534 141.6646 110.1495 132.8668 110.3377 124.6167 108.2944 118.0275 100.33 107.5587 97.9714 102.4308 98.5521 98.194 101.2545 95.488 Z" fill="#50B9C7"/>
<path d="M 206.1121 150.8187 209.615 152.1688 210.3783 152.4836 211.7464 156.5393 212.6102 160.8487 212.0774 165.0795 209.7555 169.3344 209.6095 169.4811 207.1579 169.2023 205.3141 168.8585 203.1348 164.6301 203.3584 160.3373 204.269 156.1792 205.5501 151.9227 206.1121 150.8187 Z" fill="#50B9C7"/>
<path d="M 668.2844 191.9233 677.1436 191.0779 682.5734 192.9472 687.3788 197.2513 691.294 204.4272 699.7796 215.9602 702.6684 228.3835 702.4358 234.1344 699.2048 241.5206 687.7219 249.6222 676.4379 259.1299 669.5461 268.9656 660.0816 279.0988 647.8511 288.0861 640.2722 298.5178 633.2456 310.5378 628.0219 326.0429 620.3502 339.4519 611.5421 348.5861 603.6889 360.2926 589.2175 382.794 582.3544 394.6849 573.2938 404.8743 570.0689 412.3872 572.6098 421.6312 572.2316 431.7374 568.4551 437.8998 552.0701 465.2635 549.0133 470.2257 543.0979 475.1055 535.3013 486.1394 512.459 501.3466 506.3551 504.8513 495.1897 505.2138 488.8079 501.8133 484.2903 496.0627 486.2205 476.239 481.6103 472.8742 477.1769 475.8401 472.8956 479.2981 451.8201 498.0617 430.7676 514.9168 404.9211 532.7673 393.643 538.9725 383.8973 540.6976 379.461 538.7411 381.2517 534.0168 389.2571 522.5775 398.349 511.0842 404.4493 498.9919 404.1909 489.5796 399.8927 486.6427 384.9755 489.3643 374.8094 490.6861 369.7408 490.5495 366.4243 486.8529 368.8059 476.8094 371.8054 469.8586 374.7463 464.0976 374.6005 458.4225 369.6745 452.4389 364.6435 450.9043 359.528 451.9293 348.9289 451.8411 345.941 447.3999 349.3134 433.5964 357.7504 423.0842 367.3126 413.0698 374.8055 401.8941 383.4705 388.4496 392.8878 377.5467 411.2576 356.9138 428.9369 337.9238 439.6336 328.7246 452.5436 319.7048 478.1599 305.4139 502.94 267.4235 513.7043 263.2507 517.3092 268.3016 521.801 267.5446 520.0975 260.0805 521.8096 254.2069 529.8571 244.5888 538.7521 242.7812 545.565 244.6135 553.3702 247.157 558.97 250.8036 563.9385 254.1644 571.6425 252.2668 580.3181 244.0815 586.8335 232.3188 590.9974 217.5781 601.1265 219.0689 611.3042 215.5827 625.4563 209.6803 637.4292 207.5234 648.8959 202.3587 668.2844 191.9233 Z" fill="#50B9C7"/>
<path d="M 73.0743 69.1395 77.3179 70.7449 77.4214 71.1333 77.2088 71.7701 74.5101 74.9403 72.3283 78.2872 71.6368 78.9421 68.3792 82.6407 67.6837 83.2946 67.1032 82.5632 65.7054 78.3469 66.7552 74.2597 68.5121 72.9074 71.3278 70.4961 73.0743 69.1395 Z" fill="#499BAC"/>
<path d="M 165.8913 92.6388 168.1763 95.4249 169.8661 97.8926 170.7077 99.6416 173.2631 103.8565 173.8338 104.8503 174.7885 108.175 175.6761 112.3483 173.211 116.1113 169.0552 114.1176 166.8528 111.699 164.9877 109.3544 164.0711 107.4052 162.8021 103.121 162.0883 98.9714 162.8222 95.0033 165.8913 92.6388 Z" fill="#499BAC"/>
<path d="M 100.9169 100.4983 107.6405 100.0377 113.6895 103.0331 121.9629 108.1883 125.9016 113.4855 126.7324 125.6468 124.2861 137.831 120.3859 146.4799 114.7505 154.6722 109.5161 161.2082 104.6707 159.1449 105.3793 154.017 109.4169 145.7556 111.2071 137.2323 111.6883 128.7089 111.1938 122.0372 108.4683 115.7841 104.47 110.3799 100.1153 102.3737 100.9169 100.4983 Z" fill="#499BAC"/>
<path d="M 85.7412 128.3097 88.7484 131.1883 89.8117 131.6892 91.3925 135.7243 89.4441 139.7662 89.2336 140.059 88.4977 139.6589 85.1118 136.3123 84.7411 135.129 84.6059 130.8099 85.7412 128.3097 Z" fill="#499BAC"/>
<path d="M 205.7953 158.7201 210.1749 158.6718 210.6354 160.6605 209.9494 165.037 209.773 165.351 205.5141 165.253 205.2641 164.6858 205.3338 160.5387 205.7953 158.7201 Z" fill="#499BAC"/>
<path d="M 656.4991 211.0994 665.3969 208.2566 673.9376 207.7154 681.6072 216.6948 684.5305 221.4864 684.4349 227.5312 676.6249 232.542 671.7694 237.1815 659.4908 258.0417 653.6099 270.0176 646.9536 279.4537 639.4771 290.7492 633.6194 301.5055 627.8016 316.2479 623.1787 331.0857 615.5872 341.284 607.3279 349.7687 594.0167 370.0892 562.1819 417.1215 561.6035 426.0305 562.6079 436.3136 561.2354 444.9467 557.6891 450.0003 542.68 467.5661 538.0829 472.3004 534.1666 480.0508 526.4107 487.2408 514.8367 494.6617 505.5395 499.4265 497.8985 500.0869 491.7228 494.8007 489.5034 484.6401 490.6665 476.3352 492.6183 471.7553 493.4886 466.5466 489.5027 463.6831 481.9178 467.3602 477.2672 471.5426 460.0255 488.2111 436.7108 508.1629 417.607 521.5219 406.7727 529.0293 393.5164 536.5912 387.0958 533.7817 388.7057 528.8715 396.7769 517.3833 404.1169 506.3398 408.0499 497.9765 408.6614 488.3937 407.1861 482.7378 402.1508 481.8602 388.1818 484.4507 378.9684 484.7893 373.1257 481.047 373.3485 472.6471 375.5122 468.5827 379.5853 463.698 383.8523 454.8489 378.7283 450.0965 369.0223 445.1912 358.2543 447.2342 351.2483 445.2279 354.6802 435.551 361.0697 425.6249 369.9536 414.3606 376.4515 403.1463 383.698 390.8737 391.3157 381.8465 411.3959 361.4106 429.2825 343.2819 447.1592 328.527 460.4567 320.6239 471.0899 314.9575 482.3477 308.1207 494.9235 297.6202 505.8058 291.1001 517.1385 286.517 538.5804 271.4143 564.536 263.6533 570.4149 260.962 576.9824 255.181 586.7698 243.4753 593.9506 234.6983 603.6803 228.4066 616.3634 224.4642 632.027 221.901 656.4991 211.0994 Z" fill="#499BAC"/>
<path d="M 105.0483 102.4396 113.4536 105.0739 121.8089 110.426 124.3794 115.1731 125.2782 121.3881 125.472 129.8772 123.3696 138.1127 119.1681 146.5031 113.4092 154.6586 109.9492 159.1991 107.5517 158.5324 107.7559 151.6699 110.5241 145.7118 112.0364 137.2886 112.9559 124.6553 109.9877 115.8706 104.6446 107.785 105.0483 102.4396 Z" fill="#499BAC"/>
<path d="M 604.8084 235.8978 619.5567 235.9597 631.1884 236.6124 643.5731 233.1381 648.9827 237.8432 649.6328 243.5184 647.4081 248.371 643.1982 273.6713 632.2893 294.1891 627.379 305.4337 624.8531 317.1113 620.6259 330.4627 611.798 341.5413 604.1097 349.3866 598.6688 357.1923 585.2919 378.6181 555.9311 418.8532 553.3582 422.942 551.6044 432.3056 555.7064 436.8936 557.8955 443.7532 551.4912 452.377 542.4368 460.3481 534.081 467.3218 528.8791 475.6908 519.0473 484.9067 511.4812 489.7591 500.1959 488.8042 496.1276 485.7975 494.9767 476.5973 500.0379 465.4525 509.4461 451.0354 496.5177 453.7986 486.8653 461.0785 467.2409 478.6801 450.0762 494.689 431.0024 510.1344 412.7349 523.0715 402.0192 530.201 393.4022 533.1885 393.9247 527.7484 405.4681 507.8823 411.4938 494.3857 411.6373 487.1955 408.9696 478.4553 405.2779 477.5892 393.7328 479.5569 385.2777 480.8025 377.1845 478.5767 375.522 474.076 377.5668 468.6326 382.0785 463.4076 388.6477 454.9329 390.464 449.9729 388.5194 444.781 379.1279 445.2871 374.7759 440.5319 369.9225 439.1909 365.1646 430.9414 369.8715 421.7782 383.6384 393.81 389.0375 386.4782 397.1404 377.5971 414.6468 361.2312 429.4755 347.2582 451.9516 329.5891 470.2526 319.3267 480.2004 313.9592 491.5827 305.8153 500.4045 300.0025 509.6132 295.1303 536.0163 281.0607 557.2768 272.9185 567.3607 268.6805 577.6281 260.6646 591.5591 244.3125 600.5163 237.3056 604.8084 235.8978 Z" fill="#499BAC"/>
<path d="M 109.0561 106.4377 115.4561 107.9329 121.5471 112.6349 122.9632 116.8901 124.1647 125.4783 123.4286 133.9007 120.9358 142.2158 117.8819 146.3297 114.5409 151.4283 109.7895 157.5584 108.1784 154.0942 109.442 150.015 111.9234 145.9254 112.8656 137.3441 113.5566 128.8833 113.7809 120.4808 111.5067 115.955 108.7114 111.27 109.0561 106.4377 Z" fill="#417E90"/>
<path d="M 601.0145 245.7788 619.5575 249.4432 630.3447 256.6001 637.8715 263.614 637.9096 270.6403 633.1474 280.147 624.8208 299.2101 622.4022 309.108 620.5982 322.2233 615.4742 332.1899 606.8886 341.6112 596.8347 355.0137 585.0826 373.9388 576.0605 389.5722 558.9287 408.4627 547.0642 420.3026 532.2529 436.9429 522.7333 442.4225 518.4397 443.1132 511.2648 442.1074 507.3546 444.1149 495.2188 451.6398 479.4526 465.078 466.5879 477.1621 434.1084 505.9875 416.0731 518.8012 407.8531 524.2635 400.6768 524.744 408.4885 506.0108 413.8833 493.5263 414.5828 477.4212 413.6859 472.7921 408.2398 472.6225 398.4996 475.6613 384.7546 477.0206 378.5889 475.3501 379.1582 469.6994 391.5565 454.8039 397.483 442.8296 397.9372 440.4236 392.6237 439.8481 380.9205 435.8557 373.7238 431.5448 372.2933 426.5056 374.694 421.9147 380.2981 412.5621 383.2649 398.467 388.1561 389.5743 402.5106 374.356 433.4951 347.1918 446.9884 336.3194 458.016 329.0278 468.2163 323.5782 485.5915 314.3372 500.566 303.9773 518.2205 294.4008 529.891 287.9314 540.704 284.0387 561.8309 276.5292 569.7924 272.5387 579.7055 265.4252 591.5319 252.3404 601.0145 245.7788 Z" fill="#417E90"/>
<path d="M 532.5938 447.2767 541.9186 445.7244 549.4518 446.7099 546.7811 452.16 537.5873 455.6268 532.9947 456.7316 527.9723 461.4767 524.1 469.8927 519.4641 474.9069 514.8478 476.6337 510.0657 471.9961 508.5152 466.7736 509.7474 461.3505 519.0332 458.0703 523.6706 455.63 528.1168 451.1188 532.5938 447.2767 Z" fill="#417E90"/>
<path d="M 113.0323 111.4609 114.2963 111.9984 117.0312 116.1164 117.1588 116.5041 116.9381 118.5538 116.9394 116.4424 112.9711 112.4996 112.5648 111.8549 113.0323 111.4609 Z" fill="#417E90"/>
<path d="M 116.6911 121.1253 120.9009 122.6489 121.7069 125.3339 122.3389 129.5548 121.555 133.744 120.9966 137.9987 119.7433 140.8329 117.8341 142.0768 115.0386 146.0805 114.9933 146.2449 114.9258 146.0494 114.3939 141.8355 114.5238 137.4534 114.9494 133.3335 115.3137 129.0234 116.1254 124.8425 116.6911 121.1253 Z" fill="#417E90"/>
<path d="M 602.4678 271.4129 607.8152 272.4687 608.7415 278.094 602.7173 285.195 586.6903 301.6043 571.405 312.5964 567.2317 316.2696 560.0043 319.0767 548.4318 321.2823 531.114 331.5918 522.3124 340.7411 520.4929 344.5467 521.6409 348.4404 526.1155 353.0788 528.5538 358.9349 534.2126 359.6184 544.5361 355.1051 560.9383 344.9224 579.5323 336.6491 587.5378 334.8525 592.4331 337.8255 593.5424 345.5298 592.6451 350.7253 586.1352 361.2368 580.8239 371.1919 572.0149 388.6832 540.4716 418.7038 532.0295 426.4153 522.2468 431.2348 513.7407 434.6721 504.511 440.6908 487.6108 453.4644 469.5389 470.0014 440.2583 497.3243 422.6944 510.7415 412.2684 515.9118 410.9015 511.9885 412.407 506.3524 417.1851 496.7653 420.2519 485.6203 424.9047 475.8092 430.5266 466.6436 431.0287 460.9677 427.7918 458.9498 420.2275 461.0859 408.8365 465.7571 398.8603 467.7703 390.3561 467.502 389.8536 461.8266 397.2368 453.4943 403.2304 445.6257 411.595 437.0364 418.0103 429.9525 419.969 424.4242 393.2142 416.2416 392.6233 407.605 395.3487 402.4592 394.4223 398.1308 389.8913 393.7494 392.4716 387.9122 400.1407 379.8716 415.8885 366.5878 433.9831 351.8541 448.5797 340.599 458.743 334.1933 469.6198 328.1879 507.9287 306.5375 527.6457 295.4417 535.348 292.0722 546.5775 289.3035 562.9547 286.4864 580.0651 280.722 592.2427 277.2006 602.4678 271.4129 Z" fill="#417E90"/>
<path d="M 531.8252 298.3338 539.2976 296.3533 546.2848 297.162 549.7367 298.8616 551.5185 303.0084 534.0031 318.9701 517.1965 332.6758 506.4177 347.075 494.7909 364.8845 488.6525 373.9318 490.2317 377.2998 495.0173 378.9034 503.4706 373.6489 512.4967 369.503 529.8419 366.978 542.8869 362.926 551.1127 357.8793 560.2725 351.9672 565.5224 348.0304 571.4632 347.642 575.2338 360.0629 573.5922 367.7657 571.183 376.2528 566.9776 385.2916 552.5318 400.482 533.4104 417.9828 526.2813 422.9416 516.7804 427.5267 499.8408 439.9692 481.9309 453.4261 464.07 469.3635 435.6058 496.9009 425.3518 504.5677 419.3321 504.9595 425.236 493.4534 425.2935 484.7197 427.8997 479.3765 439.7492 459.0922 439.9798 449.457 433.1765 449.5862 412.3426 459.2289 407.384 460.2579 402.4341 458.5196 402.0306 453.016 405.6789 447.1851 421.0175 431.311 434.6328 417.8596 448.3696 403.3855 457.2527 393.2523 451.683 392.9196 443.4794 398.1613 435.9372 404.718 427.0687 412.4533 423.1363 413.7043 417.4896 412.3654 410.3066 413.5918 404.0974 414.957 397.6277 412.6677 398.9671 404.3946 408.0853 394.4256 411.6944 390.4536 411.1376 385.4429 402.9785 388.3596 399.9729 383.6729 415.3595 370.5671 430.0596 359.1859 450.0204 344.0162 466.6433 335.5973 487.45 323.2338 513.7644 309.1854 531.8252 298.3338 Z" fill="#386374"/>
<path d="M 451.8427 350.708 461.418 347.938 470.0129 347.9114 472.9887 351.0594 471.337 355.9878 467.2101 360.5053 456.7666 368.0186 447.7184 375.7486 437.8874 384.1188 429.6274 394.634 424.678 399.7057 416.1819 403.0506 411.4266 403.0626 420.4429 393.1806 429.5769 381.6737 434.7331 370.349 433.83 365.6959 436.5897 360.9725 447.3493 353.4415 451.8427 350.708 Z" fill="#386374"/>
<path d="M 512.0893 385.485 540.1511 397.9337 525.6848 407.7604 518.706 410.5953 511.9843 415.2746 495.1546 425.0805 485.8378 434.6056 463.1043 459.4328 448.0984 471.2591 443.3566 469.8338 441.918 464.7151 444.3585 456.7521 447.898 447.7153 449.3824 438.8926 446.6824 434.66 439.4672 438.9672 425.0606 448.8362 417.5531 451.9916 410.158 449.7739 431.509 426.1901 444.8847 414.875 451.9574 410.7042 457.6383 412.0698 463.3452 413.7557 467.2341 412.215 475.0095 406.6791 489.5169 397.5953 501.7341 390.2297 512.0893 385.485 Z" fill="#386374"/>
<path d="M 494.3663 405.7734 498.8899 401.8475 500.5902 406.2316 498.9992 407.722 494.3346 407.5047 493.6979 406.3341 494.3663 405.7734 Z" fill="#2D4958"/>
<path d="M 439.3312 425.8733 443.8791 425.596 447.5912 426.0164 443.9175 427.1469 442.8647 430.7926 439.3501 433.457 438.2478 435.5475 434.8521 438.0241 432.1603 440.3084 430.3086 441.5418 426.4632 445.0349 425.6032 445.561 420.9844 445.6042 420.4033 445.0923 420.9752 444.3996 424.3958 440.4097 425.5309 439.0201 428.5018 435.5394 430.1936 433.6208 433.0093 430.8199 434.6949 429.2397 439.0503 426.0516 439.3312 425.8733 Z" fill="#2D4958"/>
<path d="M 471.6774 423.0691 476.1444 430.1064 471.9651 438.9232 468.1676 444.4298 464.1597 449.0694 459.9849 453.8723 454.906 458.6886 449.077 458.8634 449.0722 458.6917 452.8658 449.292 453.7323 444.6173 457.7363 435.1824 462.2854 430.362 467.1148 426.2016 471.6774 423.0691 Z" fill="#2D4958"/>
</g>
</svg>