<?xml version="1.0"?>
<svg xmlns="http://www.w3.org/2000/svg" version="1.2" baseProfile="tiny" width="800" height="578" viewBox="0 0 800 578" stroke-linecap="round" stroke-linejoin="round">
<g id="97e2200">
<path d="M 47.7368 1 113.3674 10.315 136.4402 12.7333 147.0636 14.0753 158.38 16.6636 171.391 20.8813 179.4966 24.0606 185.7747 27.906 196.9181 52.2769 201.4818 52.5866 205.6571 50.1047 213.2177 54.0073 221.0186 53.5312 229.6732 51.1521 251.0068 49.5353 260.1571 48.169 264.9681 48.236 270.8546 50.2506 276.9087 56.5489 284.939 66.2171 293.4872 73.7326 301.3508 81.7717 310.5986 89.0596 314.743 93.1296 323.2685 97.0644 335.2629 101.8542 345.184 104.701 351.8892 109.2836 360.6713 110.5763 373.3272 110.9339 387.3337 109.3283 402.2475 110.3829 412.2778 111.2451 422.4111 110.1701 434.8337 109.9466 445.1308 111.3211 456.1181 110.2208 466.9692 110.8529 479.0227 117.6734 507.6856 124.1518 524.0846 128.2535 537.1086 132.8771 559.9825 142.5168 574.1144 149.359 591.1135 152.4841 609.2251 156.2063 617.4088 157.0954 629.2993 155.6189 659.7883 140.2412 664.7063 138.0272 674.3728 136.3666 693.4414 136.369 703.1163 136.213 710.2361 138.8271 719.9335 137.9982 724.3931 132.9528 723.3234 122.0784 725.5854 114.476 726.7451 105.7875 729.6863 99.2059 737.6124 95.8112 745.5507 94.299 754.9928 94.3602 767.2302 96.064 775.2059 97.7447 781.4511 100.5538 787.2083 106.6056 790.1794 111.6871 792.7567 121.1034 794.1045 130.9876 796.7229 152.6515 799 177.9611 798.7005 187.9357 797.0686 192.7055 796.2278 210.3447 797.2942 230.6169 796.8277 237.3436 793.9039 247.0629 787.0022 264.3946 782.5696 279.4031 779.9246 287.1061 775.5651 294.4004 768.0548 307.4595 759.6359 319.9569 755.5868 333.4884 745.9664 360.8006 745.2773 367.0584 745.9045 378.5052 745.7344 388.7163 743.7196 397.0661 739.3536 415.3937 734.1625 425.517 728.5927 432.4995 708.167 455.4242 705.2821 460.432 703.4296 470.4653 698.7937 487.5112 693.6353 504.4041 689.6043 511.7985 684.1006 516.6732 676.8515 520.8023 672.7633 528.6386 664.4688 542.696 664.719 552.4556 660.3739 558.0037 651.4359 567.1901 646.7003 571.8798 639.3333 575.4153 634.9268 577.2758 631.5129 573.8606 631.0612 562.1411 633.2534 556.5078 637.8567 550.1496 640.3 543.4178 644.0575 538.1812 644.3081 533.8386 644.3006 529.8783 638.8046 517.9946 630.9824 512.6555 604.8331 503.3287 580.0736 486.8259 565.2991 478.5142 556.1564 473.9692 548.062 471.8553 536.5804 471.2161 530.3178 470.7342 525.871 474.2153 519.9376 493.2913 516.1773 499.2497 511.0694 503.7424 495.6064 507.839 489.5165 509.9038 479.5458 510.4215 460.3388 510.8808 436.6032 511.5166 430.5888 514.011 424.578 518.8728 409.2213 529.3653 402.3 535.4861 397.9353 542.7835 390.0111 557.4939 385.2028 565.0599 379.5495 565.2944 363.3701 560.6327 352.7536 551.7627 345.9808 546.378 335.7085 543.8508 327.3305 541.1868 316.7486 539.5284 307.8395 527.4857 302.5635 513.7464 293.6977 480.9051 281.1307 473.2533 268.8165 467.2258 268.5714 458.0344 266.6074 448.6545 262.4259 433.2954 250.1544 430.5165 243.0712 432.7924 234.1771 437.5833 229.9196 447.8053 222.2777 461.8936 216.7047 466.6824 205.8138 467.5583 185.7727 466.2134 168.2238 459.7845 151.3169 452.0055 145.8018 447.1057 136.7472 442.876 131.6438 438.51 125.0423 436.4428 119.3469 438.5824 111.101 436.447 104.1239 431.3687 100.1026 425.3331 96.0541 420.8603 87.4773 416.705 63.6607 410.7578 44.9623 413.6296 32.7244 415.0631 28.402 412.5863 27.1992 407.2273 21.3634 392.9655 20.4856 381.729 23.8425 372.4588 30.132 357.7376 30.7309 349.7954 27.5187 339.6173 23.851 308.9506 20.2445 299.6352 15.7422 300.3787 13.3111 297.7723 9.7905 291.1524 7.2101 284.8214 6.9828 272.8644 10.6221 264.9442 11.1961 260.7491 8.2765 256.6523 3.4213 250.5917 1.1608 243.5687 5.606 230.0769 17.2916 203.9213 29.3888 173.6009 32.2457 162.3878 31.5513 148.6774 29.0183 129.5803 23.2317 113.9913 17.5077 100.5361 4.7293 75.4251 3.7976 60.9752 1.8811 50.1391 1.9339 40.8595 1 26.2581 5.7382 12.5095 14.9996 6.9039 28.1796 3.9825 34.8579 4.3855 40.4837 3.0895 47.7368 1 Z" fill="#303545" opacity="0.25"/>
<path d="M 47.3335 5.786 52.4175 4.5775 58.1913 5.0198 68.2575 7.3643 81.6619 11.4702 88.7482 14.9643 90.9527 19.8788 95.8784 33.5106 97.8319 40.5889 98.2537 49.7964 100.4975 55.5762 104.8348 60.6014 108.6086 60.8888 111.294 58.3944 113.0463 50.4052 108.0894 33.2678 106.6641 23.8276 108.4121 19.3857 112.8802 17.7068 134.4229 19.2822 144.3116 20.0746 151.184 21.9786 164.7813 27.6123 170.3083 31.5461 174.1315 36.8811 180.0928 49.3048 183.8043 55.2531 188.4541 59.194 191.6083 63.6276 194.8698 64.6811 200.6966 61.3614 205.1673 62.8056 206.6539 66.6607 208.641 75.6986 213.0369 72.8486 218.2876 67.1191 221.9465 64.9569 230.5537 63.8661 245.8593 60.8369 265.5027 59.5821 273.1072 71.9789 296.648 90.2713 308.4797 97.3765 320.3945 105.1884 335.5301 111.7573 344.3182 116.7147 350.2408 120.9356 356.5764 124.4732 361.5702 121.857 369.0032 118.1448 374.5061 118.0108 388.8312 116.0532 408.7773 119.4514 425.792 117.4885 439.7811 119.0273 447.9805 120.6075 457.3356 120.2258 463.9132 121.5878 468.6736 125.7066 474.5505 129.2385 485.5135 132.9009 497.2818 138.4284 511.0189 148.9363 517.1938 154.8136 524.9567 157.601 545.7666 157.7584 557.7519 158.0763 565.4977 159.3977 582.9142 162.4479 596.4139 165.751 634.4302 174.9678 655.0107 192.6971 682.7484 195.635 691.3264 194.4001 699.8498 194.3571 704.7726 181.154 708.7349 165.5088 715.0125 151.853 721.6326 145.5062 730.2652 142.4213 737.6406 134.1059 741.0591 125.5361 744.3849 110.5474 748.8216 106.0671 758.6853 103.4917 774.0682 104.8194 781.1896 109.6901 784.3675 115.7927 789.0518 133.7201 791.5542 153.5805 793.5565 177.6757 792.0003 197.9125 789.8955 207.7396 789.6064 216.0373 788.8857 235.039 787.3185 239.3719 781.4432 244.7111 775.3744 248.2527 770.9277 253.6134 761.6895 267.2433 757.9782 274.6478 757.6256 284.8516 759.2027 298.1032 757.6321 306.8372 750.9192 325.2452 740.8014 355.3473 738.2216 392.2147 735.3963 404.1136 731.2472 415.2323 728.3374 422.478 723.0369 428.6684 701.1349 453.0624 692.7046 467.4289 686.0522 481.6871 681.2937 496.1962 677.3712 500.0677 668.2761 502.0907 656.7568 491.1149 650.1094 487.222 645.9781 490.8685 639.6765 492.5976 633.6416 492.1757 628.809 488.5981 623.562 482.1207 617.347 475.9406 610.1259 471.7875 593.6299 462.6111 577.8294 454.7308 548.9743 444.2549 533.9231 432.3608 530.0192 432.1916 520.4653 436.8119 515.1782 441.2104 510.9932 447.2325 500.0831 460.251 476.5737 479.6615 451.0162 491.9773 419.934 506.7641 384.7637 527.0982 379.0648 529.0368 374.3412 528.0751 364.6863 523.5356 362.8344 524.16 349.9994 527.9574 341.8083 532.7198 334.0396 534.2138 326.9086 532.2884 316.8403 528.4324 312.1948 522.1397 308.1734 511.9256 307.2287 506.0259 305.3758 484.0603 304.6566 469.8765 307.9306 457.5222 304.3296 437.8866 294.1114 427.354 285.4301 426.5823 279.3123 423.0549 268.961 412.4553 256.0267 402.3255 237.9766 391.7336 231.6515 388.4471 225.6187 391.284 213.003 390.5057 206.7208 389.9001 202.4463 392.7354 204.7898 398.7032 213.0912 403.2841 221.4397 408.859 226.6591 413.5979 230.6207 418.3173 223.9051 418.9731 203.1449 419.6051 190.5949 420.9385 183.4837 420.8106 176.8696 417.7542 170.2845 412.21 166.1831 406.0257 157.7104 391.9543 148.7414 382.0929 130.7741 375.5434 128.9251 380.8084 128.5079 391.5062 126.469 410.6733 125.0304 420.243 121.8587 426.7938 113.3316 429.0051 105.6677 422.5359 94.8183 412.7811 77.1269 406.0024 57.2299 404.9734 39.4374 402.455 32.9799 397.5891 28.8274 389.0376 31.2642 375.0035 34.4081 366.7399 35.9167 356.0126 36.1635 344.725 30.0013 308.8632 25.0444 292.9745 18.549 276.8744 16.7795 268.6347 15.7576 257.8896 10.0857 246.4685 9.6632 238.0837 12.3148 228.0085 19.1246 213.6996 33.4511 184.1015 36.9944 173.6597 41.2716 167.4767 46.214 157.7159 46.5377 144.4266 45.0531 129.0828 42.4442 120.2153 38.9043 112.4474 34.6836 104.0443 30.7387 98.4274 22.1664 86.1235 14.6279 71.7309 9.314 54.3068 7.7496 38.3878 8.0111 20.9045 11.9925 14.2779 14.6074 12.498 27.8517 8.1332 39.2958 8.649 47.3335 5.786 Z" fill="#303545" opacity="0.25"/>
<path d="M 226.8191 159.0432 228.2764 160.1518 230.9232 164.0456 233.9856 160.4018 235.5827 157.0383 235.9553 160.5467 237.5147 164.7633 239.5467 166.8084 240.4718 169.1962 239.3825 173.1727 238.2894 173.3481 234.9451 173.512 230.585 173.3279 229.8033 173.0269 226.9842 168.5795 226.4348 167.6223 224.8788 164.2456 226.0493 160.1223 226.8191 159.0432 Z" fill="#303545" opacity="0.25"/>
<path d="M 637.6825 265.6228 642.2804 267.203 646.8063 267.0184 651.231 266.3077 655.709 265.2158 657.8811 268.1245 657.7878 272.7407 656.4087 276.9141 656.1333 277.5008 652.4852 282.3047 652.3581 282.3302 649.0604 287.0484 648.3065 288.6092 644.0356 291.9098 643.9075 291.9344 643.7794 291.959 639.39 291.9122 634.8186 289.4173 634.0241 287.9787 634.097 283.3854 634.2889 282.2929 635.209 278.7745 636.3071 274.1641 637.1399 269.602 637.6825 265.6228 Z" fill="#303545" opacity="0.25"/>
<path d="M 640.2729 305.8517 651.707 305.248 663.1195 307.0215 672.6302 312.2958 677.8144 317.3914 681.1524 323.9407 681.1687 331.0309 683.7621 341.1088 686.3923 345.5028 679.7924 348.6912 670.8416 351.4378 665.0925 351.3621 661.3308 348.5761 651.8534 342.6479 646.9281 337.7588 643.767 331.1198 643.0249 324.2052 643.5381 310.3523 640.2729 305.8517 Z" fill="#303545" opacity="0.25"/>
<path d="M 220.3201 319.2464 224.567 320.4118 224.8292 320.4508 229.1358 324.9364 229.3741 325.146 229.6545 329.7397 228.8564 334.3534 228.8317 334.5249 226.0118 339.0211 224.5367 343.5355 223.843 346.4119 221.2886 347.9628 219.1818 349.2261 214.6225 348.5353 213.6557 347.6852 210.2014 345.2179 207.8277 342.9118 208.6972 338.3115 209.6984 333.7318 210.7951 331.0977 211.9129 329.1686 214.3797 324.6431 215.7273 322.0465 217.7513 320.2553 220.3201 319.2464 Z" fill="#303545" opacity="0.25"/>
<path d="M 47.1457 8.0107 59.0464 7.8018 70.138 10.1485 77.818 13.2512 84.1263 18.4181 89.4065 29.1002 92.5727 44.6388 94.2628 55.5148 94.6376 58.9659 98.3486 63.4764 109.6965 73.0999 122.2921 86.5751 125.6248 80.8879 123.6616 69.0125 125.57 56.5511 122.3245 41.4273 121.1292 34.3483 122.0506 26.2035 138.4237 22.9917 147.1053 25.095 153.0482 29.7706 159.9934 34.4922 163.5878 38.1326 166.0142 43.499 168.3529 51.561 173.2498 58.3731 183.2164 73.1473 191.9455 86.3502 198.6104 100.4192 202.0984 115.0284 208.7582 127.1675 214.0814 143.1606 216.1082 150.6093 216.8683 157.4886 215.9357 163.3816 211.9252 175.1543 209.6089 181.3427 210.9668 188.5489 211.2862 199.0604 219.886 197.9345 281.2932 206.2681 285.9065 204.8843 289.5925 200.7984 295.7276 193.516 297.8192 190.4595 297.4661 184.5806 293.4226 178.1525 287.7812 173.9371 274.9598 173.2955 261.2814 161.5538 253.7471 153.9668 249.5166 147.3367 242.7111 134.8059 236.2828 123.1578 237.0565 115.0903 242.2723 111.3461 245.4225 109.1305 250.7202 108.7708 263.4913 108.1164 268.8294 103.9568 271.9996 102.53 277.0855 103.1998 286.3382 106.7119 297.2252 111.8327 312.9609 120.5004 328.1644 128.8844 339.116 133.5608 344.5311 138.3035 352.1495 142.8044 356.4279 140.6593 366.3787 139.2539 369.9728 130.2864 374.1216 126.0597 383.3538 124.485 387.77 124.7558 390.3661 127.8334 394.5912 134.6378 399.7762 140.7728 408.748 144.7062 413.5893 144.3628 416.422 147.3929 426.372 148.3022 431.9084 148.2034 437.1609 150.2842 442.8722 155.5487 447.4781 160.3217 451.6538 167.8216 453.4394 172.18 458.5524 177.9346 465.3684 183.9338 472.2531 185.621 484.8855 186.7244 497.2997 185.9901 509.956 185.2665 518.7188 182.0398 530.5997 180.809 542.5129 180.8215 555.7651 180.8769 565.1057 183.2313 582.7986 190.4863 591.3504 195.7281 594.1389 204.6664 599.0234 225.4852 599.2545 238.3762 596.6034 250.1681 588.9048 284.5938 585.4695 295.0705 584.9789 302.666 592.6384 307.156 599.7773 309.5838 610.1827 312.1537 618.874 312.1227 625.4234 310.4717 629.591 316.6033 639.1971 351.3351 643.7773 356.669 652.8683 363.4399 663.5524 368.4398 674.3125 369.8187 683.4023 367.7536 690.9229 362.4199 703.19 348.3117 715.4144 335.099 722.2012 327.8999 727.8686 318.7841 729.8408 311.8346 741.2267 312.2449 742.3703 320.1918 741.2538 326.0473 738.5609 336.2486 734.1902 346.3184 732.1086 358.4533 731.6822 367.1219 731.6001 391.0019 727.8913 411.7793 722.9133 420.387 717.5305 426.2211 706.9392 437.2221 695.925 446.9558 685.8749 459.1746 680.7059 466.8398 674.3837 472.7676 663.1766 472.226 650.7034 468.5079 640.3494 465.2089 631.9047 460.3169 626.5426 454.7248 622.848 450.0759 623.7466 443.4887 633.8773 427.0193 634.9821 416.1627 632.8618 413.0154 626.0553 410.2816 586.2795 420.1175 577.0151 421.9949 565.5303 420.9348 554.5791 417.8109 546.1862 416.7773 527.9784 420.4083 508.578 428.0307 495.4834 438.2618 484.9384 448.2106 473.4269 459.4859 467.4477 463.1938 458.348 466.6408 448.8779 468.8313 439.9127 475.2463 423.0702 487.3612 406.0893 499.083 397.4955 504.6889 389.6189 508.1951 374.6427 509.6165 366.7855 509.5727 357.5516 514.059 348.2302 519.1654 334.9561 522.4717 322.78 521.6183 315.6432 516.2048 312.7451 505.0385 312.8505 501.2694 315.6655 475.1444 317.3628 463.0177 317.6667 449.7446 316.8976 437.5916 313.6991 427.8502 304.7513 410.5422 299.8924 405.9857 290.399 404.8193 286.352 405.839 280.8212 401.6641 277.8095 392.3244 274.0157 385.6729 266.8203 380.0293 261.0126 380.948 255.3013 379.761 246.7223 375.9231 240.8239 369.9293 233.0709 361.7237 230.478 348.7655 235.0466 326.8271 234.3367 315.7001 223.9974 313.4919 216.8474 314.8532 213.1194 318.1278 206.516 326.5485 200.6801 341.4007 199.2688 346.613 200.2391 353.2715 198.7906 360.4083 195.9334 365.9062 194.324 374.7676 195.392 381.9619 195.6797 392.3533 194.4293 395.6544 189.2624 394.0996 185.7227 388.063 175.7773 386.3263 169.8252 378.3881 166.4558 369.1326 155.3815 354.465 144.4838 360.3857 139.8351 361.0097 135.929 358.7667 128.7003 355.6071 122.4564 357.5924 114.1404 362.2745 107.6278 368.7606 110.4725 375.1039 118.4119 378.8566 122.7101 386.1837 123.5615 399.6331 121.8755 413.5735 119.2271 419.0011 113.6608 419.3742 104.6188 412.7519 87.9226 403.1526 71.7946 400.0296 50.1074 398.5976 40.7823 394.4159 37.466 389.7184 37.7348 383.5149 40.6855 371.0641 41.9891 357.7696 39.9624 335.7359 37.4722 311.8623 33.4269 300.4876 28.851 290.7196 22.6852 274.0243 20.2548 256.824 19.564 247.2866 16.1033 240.4622 18.0325 232.3401 22.2387 223.8955 30.3621 207.288 37.5701 189.6731 42.0343 178.6249 47.7797 169.8318 51.8981 161.5975 52.6065 149.54 51.4385 130.7294 50.4356 121.0057 47.9873 108.6167 36.3708 82.2445 27.8984 69.2921 22.0024 54.3334 14.4166 38.0644 11.5149 26.5449 12.1746 20.4937 17.3784 14.201 27.6997 10.7519 41.9669 10.2367 47.1457 8.0107 Z" fill="#303545" opacity="0.25"/>
<path d="M 766.7766 115.1058 773.3426 113.1922 777.0452 115.6846 782.3396 125.761 786.0708 139.1425 787.919 153.7672 789.7998 182.255 788.5229 195.8094 786.0001 207.5815 781.0506 228.2992 766.6174 245.6944 741.3215 275.5779 734.215 284.5144 726.7275 291.3322 720.1418 299.823 715.8149 310.0193 709.5368 316.5497 701.044 316.2529 697.9852 313.7628 685.1032 293.7744 680.1139 285.3037 680.077 269.1569 682.5678 257.5799 688.65 247.8061 697.4626 228.5852 702.0597 219.7698 709.8702 213.2891 721.3975 195.5273 728.0357 186.6805 730.5952 177.1722 737.6854 156.8072 747.8125 149.7389 752.5945 144.4502 766.7766 115.1058 Z" fill="#303545" opacity="0.25"/>
<path d="M 130.779 157.418 139.6128 157.0146 143.6519 162.2402 143.3037 168.1447 140.2778 172.5185 137.1606 176.6942 133.1701 180.829 126.3842 184.6045 120.0737 186.3478 115.7049 183.9548 118.6823 179.7665 120.9665 173.4458 122.8257 166.8438 126.2811 160.6687 130.779 157.418 Z" fill="#303545" opacity="0.25"/>
<path d="M 669.3066 207.6499 675.7815 205.7948 680.9449 207.9343 681.9079 214.6147 680.9753 221.395 679.4656 225.8275 675.3732 228.0176 668.873 230.9092 662.553 231.7758 661.045 240.7621 654.6822 250.2357 641.1238 248.7481 638.0068 244.6042 640.6042 240.9257 650.0309 237.0826 657.7561 231.4 660.1652 218.5234 665.2514 211.9246 669.3066 207.6499 Z" fill="#303545" opacity="0.25"/>
<path d="M 139.6995 225.4607 144.3543 223.0016 148.6687 224.1678 149.8994 226.0391 150.53 230.6044 148.1277 235.02 148.0056 234.9924 145.4692 239.378 143.1757 241.5142 141.0369 243.5065 138.5496 244.1739 134.0929 244.9072 129.4693 246.8307 127.1699 247.1677 124.8683 247.5003 124.3331 247.014 123.4716 242.5305 125.3593 238.0091 125.5228 237.8711 130.1309 236.4995 131.9165 233.9076 134.8674 229.6402 134.989 229.6692 139.6995 225.4607 Z" fill="#303545" opacity="0.25"/>
<path d="M 161.145 240.0004 161.477 240.2479 165.418 242.8463 167.2805 244.9995 169.529 249.698 164.8517 252.9701 160.4251 251.8638 156.4048 248.8818 156.2307 248.4904 154.9412 244.3188 156.5753 242.7286 160.2142 240.1547 161.145 240.0004 Z" fill="#303545" opacity="0.25"/>
<path d="M 235.9588 265.374 244.6688 270.8048 250.9077 271.1269 258.2502 264.7587 271.7549 264.4883 280.8205 267.4191 282.259 274.1823 280.278 279.5378 271.1961 281.4868 264.5552 282.0992 259.3 284.9434 252.9681 293.9156 243.885 294.4595 238.787 288.8576 230.8134 281.0557 226.8329 279.0571 224.905 274.7348 231.3125 268.1834 235.9588 265.374 Z" fill="#303545" opacity="0.25"/>
<path d="M 333.6432 308.8999 337.7027 306.3678 342.629 306.647 351.6166 309.0131 356.0731 311.2966 359.4289 318.5483 362.5854 332.2006 365.0021 342.5228 360.4433 349.8122 355.8245 354.1352 342.214 358.8672 337.6669 360.1815 328.4363 360.15 314.8154 355.0424 312.911 340.9923 315.2346 322.7429 324.5726 315.5998 333.6432 308.8999 Z" fill="#303545" opacity="0.25"/>
<path d="M 180.0945 401.6589 181.5429 402.4351 184.613 403.8361 186.8977 407.3753 184.3911 409.4064 179.78 409.3202 175.8663 406.8853 178.5497 402.2676 180.0945 401.6589 Z" fill="#303545" opacity="0.25"/>
<path d="M 51.334 9.4513 58.7046 9.6068 65.7452 11.1696 73.6857 14.2246 80.5247 20.1323 83.8006 29.1207 86.472 40.8698 87.9203 53.6265 89.8329 63.5663 99.7 71.619 114.5864 86.1046 122.4747 94.4973 127.9796 97.6064 136.1081 98.7655 139.5577 96.1975 141.2768 91.4326 138.6219 82.5601 134.4327 73.7844 132.9418 65.7464 133.4327 58.7942 134.0578 45.1846 133.6568 37.3435 132.9121 32.3313 134.6921 28.0573 143.612 27.1825 151.246 32.8515 155.4349 37.0309 158.9186 43.2161 161.3615 55.4363 165.861 64.7667 175.6462 80.4707 185.4933 99.5194 201.6349 138.9016 207.0696 148.2494 209.59 157.3782 207.7135 164.3134 199.9958 170.5041 193.5391 192.1083 188.0568 205.7423 188.7235 213.762 190.7912 218.5457 195.1785 223.7601 201.105 225.5528 205.5862 223.5563 209.0805 219.2758 215.5266 210.6121 223.4988 205.5022 231.8636 205.1106 238.5873 207.3656 244.401 214.3094 246.551 219.8328 246.8386 225.6118 247.7469 239.4894 251.6373 263.7226 249.5265 267.1034 244.3114 266.9139 236.4089 261.4208 230.9256 263.9281 227.1894 268.2589 222.3651 270.3121 220.9585 277.6236 223.9289 281.0642 229.719 284.9187 234.5141 292.272 219.6569 307.0459 200.842 322.4497 196.5625 331.7479 193.7244 346.0338 188.9486 358.5773 186.0155 362.6408 180.5377 360.4447 162.6933 347.0738 153.6659 344.2256 143.7873 344.8471 138.3619 346.7102 130.7955 345.426 128.5992 338.9068 133.2705 334.7925 139.1424 330.7491 139.2523 323.8569 129.5731 316.0341 121.5623 306.1875 117.6057 295.2753 117.9547 285.3776 126.1971 278.9707 130.6237 274.3142 128.0444 269.4403 126.4789 263.1962 128.6495 259.6199 132.4966 255.016 137.4947 252.0956 142.6451 252.3886 146.7553 256.1499 156.6291 262.3759 162.8084 262.7933 174.3708 261.6119 178.6828 259.4634 181.9519 253.9325 179.1636 248.4575 174.8924 244.7895 163.0748 236.3495 150.0832 217.9446 141.6716 217.0628 130.6295 221.6943 124.8387 220.2687 120.3645 217.1878 118.0621 212.6842 118.8273 207.7183 124.3641 197.9324 132.1753 189.7874 144.446 177.0609 152.5217 169.8238 152.5782 160.3463 147.7693 154.2737 144.675 150.7051 139.3738 150.2642 129.2045 153.6554 120.7093 161.8551 110.5535 183.1097 107.5612 191.3866 108.8351 200.2883 111.9551 204.3262 112.5126 211.4247 109.2666 218.4221 109.55 226.7073 110.9821 240.2885 108.0951 257.2314 105.3114 268.1376 102.8398 274.658 103.4497 282.3235 103.8373 292.0741 107.1852 306.1239 110.9912 315.9701 114.0022 325.4207 114.5172 337.4701 116.8188 349.3862 113.8968 356.5329 110.583 360.3856 106.4177 364.7441 104.0648 368.6343 104.8282 372.725 116.4472 380.5431 120.3909 390.807 120.0441 405.0544 119.4366 409.8682 114.9595 413.48 107.9884 405.7332 98.8795 399.9107 89.0674 397.2139 60.0685 390.9116 52.9521 386.4945 50.4179 382.7578 47.9863 369.7118 46.7052 346.8799 45.318 320.879 44.9671 311.9259 42.9876 305.7349 35.7944 293.2364 30.7321 282.0445 27.719 270.9078 25.843 255.7364 26.743 241.2685 34.201 216.941 42.8548 191.424 47.9207 181.1128 53.6474 173.3824 57.8351 165.16 60.3684 152.2695 60.1855 138.6986 58.7788 126.5335 53.1049 97.4478 48.016 76.9668 42.2521 66.0609 38.0868 55.6997 36.4736 42.7021 32.5456 35.9734 26.7789 34.5886 21.5049 31.3855 18.9552 28.7233 16.2596 22.2011 19.1239 17.2662 24.5608 14.4801 31.6424 13.7803 38.729 14.1124 43.0781 12.6242 51.334 9.4513 Z" fill="#303545" opacity="0.25"/>
<path d="M 296.8725 134.8052 320.5195 146.9018 336.0904 154.8812 343.4185 158.2472 350.2154 159.4934 367.7256 162.3557 378.8216 163.0699 383.4109 167.612 390.9824 168.9605 398.6086 166.6855 413.5547 168.2693 417.9838 175.906 420.0112 182.1979 427.0521 192.8735 448.0554 215.3297 456.9492 224.1118 469.0502 233.2009 477.9893 233.4005 487.2965 231.609 495.5106 230.1679 506.7213 226.693 520.5523 221.8189 534.4642 218.4904 550.0481 214.2624 558.0206 216.5481 564.3896 222.9957 567.9066 229.8179 569.6679 237.2316 565.6356 251.0088 559.9309 265.6829 557.6441 276.0759 557.4291 282.7272 558.7162 289.0228 562.7712 296.5479 570.3056 306.24 581.884 315.5255 599.4409 322.2593 614.3318 326.9331 619.0748 326.15 623.2531 330.0165 622.2953 335.6283 623.4718 340.1759 625.4282 346.8763 625.1882 356.9333 625.4709 364.439 623.1084 376.4146 613.7171 386.5012 602.686 394.1123 590.8353 401.724 579.7484 406.151 566.1058 405.0337 549.2527 399.7725 544.4926 398.6989 538.7226 400.1415 522.4441 408.9124 503.4248 413.6724 489.7456 419.2324 479.5119 427.2403 467.2318 437.1484 452.4718 447.3549 440.6141 453.7063 427.5323 463.9269 406.125 486.0428 391.0274 493.1306 377.0663 496.3068 360.2173 502.8487 344.0308 511.1054 336.2984 514.1552 329.4249 514.8146 322.7403 512.1978 320.6413 509.3263 321.0669 502.4915 325.2726 495.1933 325.8291 483.3651 325.7552 462.5173 328.8518 427.9779 330.9212 402.8155 332.9307 397.2131 338.2177 389.8821 347.1951 379.2443 360.2347 369.2301 373.1552 360.9935 378.5795 355.2425 383.1985 347.1988 385.885 339.7975 384.7382 330.5865 381.3529 316.8193 377.7335 300.2686 375.0685 276.4779 371.8245 271.0174 365.6549 264.0612 356.1217 255.8892 342.7612 247.6001 337.255 254.532 330.951 259.3176 325.8606 263.9888 319.1169 266.612 313.1549 262.3286 311.5563 257.3443 312.3478 250.8277 316.419 245.1013 322.9186 239.3792 324.2216 233.4301 322.9114 226.4279 326.696 219.639 326.3057 210.1394 318.1697 196.4394 316.3098 190.2753 316.0781 181.8526 311.4235 176.137 305.8001 171.3387 295.2563 156.4307 293.2753 141.8962 296.8725 134.8052 Z" fill="#303545" opacity="0.25"/>
<path d="M 777.8291 137.1261 780.8016 142.4404 783.9454 154.0601 785.2507 176.1614 783.9712 195.1524 778.735 212.8735 771.0055 226.95 761.3754 237.6969 749.6136 251.8191 740.1024 261.893 728.8784 275.7145 720.6112 287.1833 709.7452 300.9803 702.8201 302.2958 698.237 297.3258 694.9182 287.2461 695.2163 274.8916 698.9289 256.1852 705.2763 242.127 713.2872 227.7433 731.2523 203.3186 736.1955 196.8741 743.2024 190.6786 747.7503 184.9914 750.9926 177.6968 753.4466 170.0896 758.231 162.447 766.1005 151.4051 771.8892 140.6102 777.8291 137.1261 Z" fill="#303545" opacity="0.25"/>
<path d="M 298.0916 280.801 309.1946 282.6475 313.5426 287.5161 311.3365 292.549 306.5477 303.4483 305.327 317.9511 296.8905 341.5767 292.3044 354.9107 286.9703 356.6727 285.1834 349.8825 282.944 337.1185 279.9032 330.1869 278.4557 331.2561 275.3958 337.3822 269.4523 340.0484 267.5593 346.1162 268.9799 354.1216 268.1827 361.3566 262.8574 364.7699 255.2894 364.757 244.1986 359.8848 240.8203 356.2983 237.884 348.5627 239.2476 332.48 241.3104 324.1881 241.831 316.3878 242.8585 310.7555 247.1991 306.9649 257.1599 301.0814 264.2721 292.0041 268.0057 288.9586 274.1223 289.8323 283.3136 289.7802 293.6272 281.943 298.0916 280.801 Z" fill="#303545" opacity="0.25"/>
<path d="M 185.2393 295.423 189.6396 296.0487 189.7681 296.0719 192.7715 300.8332 193.7895 304.8842 193.829 305.419 194.0896 310.0394 193.4223 313.0899 192.8926 314.5809 190.6149 319.1085 188.4274 321.538 186.1931 323.4283 183.7594 325.6322 179.2218 325.1557 177.5653 323.0858 175.1844 318.4068 175.0192 317.8464 173.9015 313.7528 173.9653 309.177 175.3617 304.6794 175.7503 304.0478 178.3665 300.1342 180.5544 297.7248 184.6311 295.8394 185.2393 295.423 Z" fill="#303545" opacity="0.25"/>
<path d="M 708.29 361.1745 714.3548 359.0417 719.502 360.8383 721.4127 374.7935 723.1017 402.8078 721.5008 412.3971 712.9346 421.0785 699.693 432.7975 681.7557 445.2735 672.7457 449.8309 662.7524 449.2544 660.85 442.9554 661.5198 435.3027 663.9834 425.5511 652.185 407.5477 659.0623 397.841 664.9879 392.6624 681.4969 377.7028 699.5391 367.2523 708.29 361.1745 Z" fill="#303545" opacity="0.25"/>
<path d="M 46.7554 12.8142 53.5016 11.1618 59.5634 11.5114 70.1744 14.3609 76.1056 18.4063 79.5172 26.2466 84.311 46.985 84.3329 58.598 84.995 63.2207 88.6982 67.0716 103.6731 79.691 109.7622 85.2097 117.691 94.1886 128.7484 104.1158 133.9276 108.6645 140.207 111.3684 146.8781 110.2914 150.4083 100.9187 152.3468 93.2535 153.5941 84.743 149.6505 79.4113 143.5196 73.9974 139.0347 66.0469 139.1754 59.0104 140.4954 53.0037 141.1235 38.4288 142.5449 34.8947 147.8325 35.8402 151.0174 37.7249 154.4053 43.3986 155.4358 56.6538 158.2903 64.9273 162.2138 72.7784 170.2276 85.8941 175.8964 94.443 178.5767 101.0804 185.503 115.716 187.7513 126.219 188.3282 138.9845 187.5207 158.2816 189.5947 177.0082 187.6622 188.5048 182.708 197.3148 181.3264 204.752 183.7243 212.6042 188.9126 221.1672 195.9648 228.2906 198.903 230.7602 206.0556 232.2182 216.3423 216.6851 224.4987 212.1114 229.1571 212.1646 238.477 216.2159 242.3613 224.0982 244.0953 239.672 244.2565 246.4924 246.2233 250.4298 250.0605 261.2441 248.0875 263.5935 244.6445 264.5161 241.257 262.2943 232.4711 258.7408 227.0545 265.7884 217.6833 269.7433 217.6504 276.3981 223.6868 283.4794 230.9973 288.6091 230.9841 294.034 225.7979 297.1157 219.7815 301.1035 207.9399 312.0285 202.3318 313.5603 199.0343 309.3108 197.6742 299.4052 195.2663 285.2643 185.8737 277.7485 183.0379 273.3406 184.2002 266.5145 188.4025 256.5688 189.0901 249.4865 186.8615 245.7233 178.9677 241.0223 166.7468 235.8888 162.0203 229.9454 158.0221 221.4858 153.6586 216.1012 145.0433 211.3014 139.8624 211.3214 134.0099 208.8507 132.4902 204.2229 133.4545 198.2549 137.4743 189.5017 143.9039 181.8709 151.261 177.2711 157.5219 174.5017 160.7849 170.3289 162.2602 160.1426 151.6854 147.4981 144.7945 142.4803 135.7369 145.645 127.4447 150.1938 122.0324 154.5943 117.011 161.9285 112.2068 173.7713 104.7603 190.0892 103.1837 201.4401 103.5328 212.4319 103.8798 224.1414 105.2943 234.5251 102.7361 250.3054 100.4407 260.6202 99.301 274.2837 100.1382 283.6251 106.7534 310.1233 109.5971 318.3084 111.202 327.2495 113.3241 338.9703 112.776 352.1845 101.7102 368.2533 105.0953 375.2753 113.4628 379.6914 119.364 387.5712 117.1401 401.5893 114.0711 408.1592 111.1659 402.7347 106.5515 398.4998 62.912 385.7704 54.9001 378.253 51.3572 368.6759 49.5566 344.9917 47.6566 334.0037 49.5169 322.0998 51.4725 310.9393 46.095 302.8611 40.9054 295.3372 36.6564 285.8845 32.9136 275.0988 30.1732 261.5031 29.7874 249.9123 31.0013 240.2916 37.5151 218.2077 44.1412 199.4693 48.6745 187.5204 54.0933 179.1336 59.3755 171.4321 62.3555 164.0851 64.9601 153.5682 65.8256 142.3335 65.2309 130.4612 63.4645 120.185 56.6681 97.6074 55.1789 87.0474 57.0863 75.189 56.2854 68.1166 52.6298 64.8413 47.2844 57.8841 42.421 39.9705 40.7631 33.0847 37.0572 28.6105 32.9278 26.4492 26.4404 25.8283 22.1812 22.8412 24.3042 18.5 31.3096 17.7554 37.3454 18.1953 41.2748 16.3585 46.7554 12.8142 Z" fill="#303545" opacity="0.25"/>
<path d="M 330.8896 171.5542 335.0129 168.9426 338.94 169.034 345.8717 169.121 356.6933 172.2576 366.127 176.5963 374.8283 180.4904 380.5132 181.3391 391.8456 179.5359 400.7968 179.9876 402.6184 185.9737 408.2173 195.5678 414.9701 202.063 423.4837 209.5352 430.0657 216.9902 448.7564 232.6794 466.9621 245.5528 480.6693 249.4705 489.6927 248.8929 502.7473 244.3006 511.5291 244.0904 516.0243 248.541 518.2113 253.3676 521.4589 270.7651 526.4009 279.8518 535.4767 288.3366 544.7105 297.1024 554.3158 304.5524 570.7994 317.1852 581.7344 324.1196 593.4449 328.0604 604.2051 332.2268 610.5984 334.909 615.1437 339.4455 618.6021 353.1056 619.8413 363.2608 616.8364 369.7107 601.2358 384.1809 586.685 391.9859 576.5162 392.961 571.7074 389.3747 564.0772 391.3363 546.4401 390.3223 539.1536 390.1878 530.8199 393.7605 518.4381 399.698 496.0616 407.0606 482.2393 414.2897 473.0588 420.4643 434.5741 448.8269 424.6811 457.0701 417.742 465.0491 411.017 473.1579 406.2938 478.3118 400.21 482.2352 387.9888 486.9071 372.4427 490.0139 345.6996 497.6371 340.8498 495.5215 339.8355 488.773 337.1448 474.5319 334.157 461.6222 335.8051 442.0344 338.7599 429.7462 342.461 418.6907 349.4947 404.3105 355.624 395.0483 369.2295 378.2119 386.7319 359.2303 393.0611 351.0087 395.972 342.8964 396.3479 332.8463 388.3641 304.8325 385.3515 293.6916 385.2542 279.6711 382.8583 267.8612 374.5777 254.8596 367.6235 247.7254 360.3594 238.2973 353.5889 228.6813 347.9553 215.8256 334.643 195.0925 333.4266 185.2413 330.9981 176.5166 330.8896 171.5542 Z" fill="#303545" opacity="0.25"/>
<path d="M 775.418 156.6139 777.3782 163.9308 778.5328 174.6138 779.6044 184.79 778.8364 190.3131 773.7199 206.322 768.4895 218.4964 758.0728 229.838 748.2566 241.5794 738.3876 251.4049 727.3384 260.3484 723.4209 275.0012 715.889 286.7745 711.1887 291.8791 706.0393 295.2819 702.0376 294.4633 700.3892 290.4024 701.2197 284.8571 703.3448 278.6377 702.6806 269.3488 705.9485 262.1197 713.5556 250.3677 715.0773 241.0347 717.9073 234.3879 725.8233 222.2233 743.145 198.2475 752.2031 188.6729 759.8776 177.9801 767.3299 164.736 775.418 156.6139 Z" fill="#303545" opacity="0.25"/>
<path d="M 159.0825 275.6329 164.2694 274.7605 170.3349 275.9862 173.9357 277.0518 173.4495 281.5448 170.6786 288.2382 170.2712 299.8128 168.075 311.0391 168.3736 322.7522 172.3668 328.9881 178.8273 332.4858 185.6516 331.7838 188.268 332.4239 190.6448 337.5908 191.2527 342.7971 188.5382 348.1313 183.6022 350.2553 178.0383 349.6077 169.6392 345.5823 163.5837 341.0681 158.3781 333.8589 151.6686 328.2528 143.8121 312.2505 142.0513 305.3076 138.3548 298.1062 135.1458 296.1459 134.5464 291.036 140.338 287.3628 148.3506 284.3307 154.4997 277.3223 159.0825 275.6329 Z" fill="#303545" opacity="0.25"/>
<path d="M 293.3961 293.7458 297.8066 293.6378 298.9797 294.9623 299.3453 299.5165 298.8108 303.9901 297.5434 307.876 296.9453 308.6912 293.651 313.084 292.8527 314.5753 292.0707 313.1086 288.4271 311.3634 285.3049 308.4404 285.9045 303.7994 287.9207 299.3012 288.8135 298.1716 291.9966 294.8289 293.3961 293.7458 Z" fill="#303545" opacity="0.25"/>
<path d="M 72.4571 286.0902 72.3868 289.3092 72.4631 294.0072 71.6473 298.4577 71.3702 299.4602 71.3435 298.5536 70.5739 293.8427 71.3177 289.1915 72.4571 286.0902 Z" fill="#303545" opacity="0.25"/>
<path d="M 270.6387 301.1166 270.3825 310.3288 272.6505 317.2084 273.4858 324.1003 271.9207 331.0781 261.2262 335.4425 260.495 341.6398 264.8339 349.8204 264.5672 359.3835 257.7608 360.1654 250.8348 358.4533 243.4039 353.3161 242.3805 346.5397 243.7082 339.5465 244.4794 332.6545 247.1764 329.5105 249.0083 323.6301 248.7181 316.6018 251.9691 311.953 256.8667 308.7271 266.1065 304.0817 270.6387 301.1166 Z" fill="#303545" opacity="0.25"/>
<path d="M 292.7569 319.7883 293.5798 322.3025 293.9519 326.8629 292.5943 331.4368 292.5782 331.6094 292.462 331.4245 289.8342 326.8228 291.0689 322.2398 292.7569 319.7883 Z" fill="#303545" opacity="0.25"/>
<path d="M 70.0068 318.14 74.5981 318.3091 78.9541 321.4481 79.1701 322.2226 79.5091 326.7936 81.6218 331.6479 82.5123 334.7446 82.784 336.426 82.5864 341.0273 82.0595 341.9645 81.0335 340.9828 77.7008 339.0379 75.3961 335.9212 73.4548 333.6115 71.4789 330.9287 69.2941 328.0041 68.2542 326.1045 68.2598 321.4351 70.0068 318.14 Z" fill="#303545" opacity="0.25"/>
<path d="M 700.8391 384.6871 710.1412 384.1838 714.2606 389.4431 713.9173 398.7405 711.2091 403.6083 707.3628 409.4255 702.974 414.281 697.5944 418.7973 689.3509 419.6539 684.5221 416.2466 683.733 410.2429 685.6681 405.4374 688.5961 400.5924 692.2187 394.3496 696.4078 386.9017 700.8391 384.6871 Z" fill="#303545" opacity="0.25"/>
<path d="M 51.0411 12.8713 58.8633 12.4809 65.4717 14.0507 71.6398 16.8148 73.6663 19.2899 77.6663 29.6304 81.0233 43.242 81.4482 55.8764 80.8872 62.0376 83.5312 66.2665 101.3557 81.9709 109.3594 89.3037 115.5962 96.2181 122.4133 103.4167 130.8474 113.6185 137.6243 120.8429 143.915 124.7345 142.6088 131.7596 134.3134 139.9989 126.8378 145.6209 117.7605 153.2692 112.8034 161.1412 108.6111 175.1047 102.5962 188.7809 100.6045 198.769 99.6772 216.2159 100.3989 226.9659 99.1551 236.475 95.2813 240.6276 96.375 256.3275 96.3689 268.5059 98.6574 282.5289 102.1428 297.7247 109.0457 321.7416 111.4369 333.8963 112.3992 342.3126 111.084 352.1454 104.3029 361.5763 100.0172 365.7133 100.9007 372.8625 111.9356 380.0531 116.5428 382.6914 118.4087 386.6511 117.4225 391.7438 114.4264 396.0326 106.2343 395.4145 91.5271 390.702 79.3952 387.5292 65.3486 382.1259 57.452 375.902 53.554 364.4395 52.963 352.4243 49.8705 336.7998 49.5621 329.8654 51.1757 324.7412 55.3374 319.6234 62.499 319.3022 68.6084 331.0495 76.1506 340.6001 81.852 349.9593 85.8218 353.4748 87.0491 348.0697 85.5201 335.7012 80.1831 320.5188 68.2672 275.1874 66.4514 283.5002 66.9875 290.8577 66.7791 298.0018 62.977 303.5945 56.2032 305.2694 49.1873 301.4244 41.6929 289.9613 37.0299 277.4728 33.4629 263.2778 32.4208 250.215 34.6844 236.0251 42.1169 212.6127 52.8222 186.6863 58.5815 179.1245 65.0615 167.1066 68.8133 152.4556 70.106 136.704 51.9105 54.2227 47.8077 44.5007 44.836 30.9021 43.2314 24.5893 44.7474 16.8231 51.0411 12.8713 Z" fill="#303545" opacity="0.25"/>
<path d="M 160.3954 99.928 165.5843 98.7564 169.3364 101.1991 174.6717 106.7515 180.5015 111.8609 183.1476 119.6988 183.6563 140.6057 178.4973 157.6112 183.6417 170.7354 183.6055 182.0882 181.2804 188.0878 176.7077 195.3816 176.8073 200.8433 179.9957 211.3296 184.5624 219.0906 192.7587 229.9726 197.2051 237.2904 196.366 241.8756 189.9764 241.3911 179.2931 238.0939 171.3566 235.7871 165.648 231.4237 158.0964 216.5591 145.3042 206.4093 140.3842 204.8934 137.8178 201.9758 138.2836 196.4229 140.801 190.1327 145.2882 184.8497 151.2136 181.6635 156.6224 184.8499 162.9625 185.047 165.4241 182.7811 169.6876 161.2859 150.7995 134.4971 147.5592 128.9739 148.1514 122.8278 150.5123 119.9238 157.768 105.5277 160.3954 99.928 Z" fill="#303545" opacity="0.25"/>
<path d="M 94.7119 112.623 98.9019 114.9492 102.9422 118.6266 106.9937 123.1702 108.8532 131.3143 107.9751 139.9241 107.2751 148.4207 103.934 152.4507 99.616 152.1055 100.359 143.6015 100.4258 139.1767 97.4713 134.7569 94.8155 130.2354 96.2581 121.7835 97.1481 117.6146 94.7332 113.3389 94.7119 112.623 Z" fill="#303545" opacity="0.25"/>
<path d="M 348.1948 183.4242 355.7811 181.4287 361.6107 184.2613 370.4829 188.0303 380.8371 191.2556 392.142 197.4807 405.0814 211.4918 414.197 217.6741 422.8181 224.8272 439.4715 236.9142 449.7169 242.9874 458.8551 249.5439 467.0172 254.3582 480.4505 258.3014 491.1941 261.7675 500.4935 266.813 513.286 280.5255 522.2658 289.1082 532.1638 296.5053 550.0527 309.7534 568.687 322.5238 576.7531 327.9418 585.1171 332.0512 596.1354 336.25 606.966 343.025 610.0155 348.513 610.8479 355.5744 607.3921 368.2052 599.1504 378.5363 589.8505 383.172 579.6671 381.3888 569.6323 383.8735 563.6691 385.4584 555.7077 385.4962 542.0746 383.1113 529.2029 385.216 520.0295 390.188 506.6082 395.2338 496.4637 400.2727 478.6425 410.3231 459.3399 425.5332 421.8827 453.1332 406.6163 467.1322 397.3158 474.6488 386.9578 477.2681 379.1089 471.613 373.7055 470.1064 367.9111 472.1811 356.6862 476.9604 350.1421 477.9007 345.8853 473.9266 343.2248 461.7434 342.8673 448.0977 346.2437 434.7861 350.9921 421.3412 356.0385 412.3825 363.3204 401.7508 375.8255 383.2533 382.367 373.7042 388.0781 367.5741 396.0623 359.192 403.6842 348.8519 407.0579 339.6769 407.4746 331.0111 405.7733 325.8069 400.2004 314.5116 396.6615 303.9111 394.2925 296.9559 393.9954 290.2005 394.4214 277.0572 391.9526 264.5776 386.4167 253.2568 379.3385 243.9506 374.4816 233.6451 361.1553 216.8103 350.5883 200.1654 347.6275 189.3806 348.1948 183.4242 Z" fill="#303545" opacity="0.25"/>
<path d="M 764.8079 182.1911 771.2184 182.1103 773.1825 186.5446 772.417 190.9642 766.9136 203.0549 762.2286 214.4718 758.4337 219.2507 751.4322 224.4241 743.9927 234.1669 735.2632 244.01 730.7945 247.0379 726.2269 248.2781 722.975 245.03 724.3763 236.0549 728.375 231.0204 734.9806 221.4596 740.9105 211.3113 748.7784 200.7046 756.6897 190.7136 764.8079 182.1911 Z" fill="#303545" opacity="0.25"/>
<path d="M 224.435 216.2841 233.0796 218.5261 238.8876 225.8498 243.126 248.2502 247.8067 257.2752 245.5788 262.3766 243.627 261.7557 236.2399 255.6314 231.0889 256.0857 228.1377 261.2311 225.5191 263.2766 218.187 264.2177 215.7772 274.3436 216.596 279.7353 220.2725 283.6493 229.0556 288.4964 227.982 293.9399 221.3457 296.9625 214.2731 301.6403 207.228 308.2238 202.498 306.2069 201.7549 301.1601 200.9235 287.4842 198.3396 278.2458 191.9208 269.0065 193.6605 255.2573 197.5617 246.4822 205.7527 240.3993 211.8185 233.7435 215.3118 223.4966 224.435 216.2841 Z" fill="#303545" opacity="0.25"/>
<path d="M 714.3132 265.7241 716.7614 268.494 719.2571 270.8919 719.734 272.7369 719.5327 274.0415 716.6818 277.6346 715.3753 278.8607 713.5153 277.9013 712.4974 273.3336 712.5265 268.6807 714.3132 265.7241 Z" fill="#303545" opacity="0.25"/>
<path d="M 157.5515 303.6258 157.8101 303.6789 162.0799 304.5472 163.8277 308.6099 163.1729 313.2515 161.6043 317.711 161.3715 318.1948 156.7359 319.5588 154.4653 317.3252 153.2531 312.6499 153.7787 308.1562 157.5166 303.7956 157.5515 303.6258 Z" fill="#303545" opacity="0.25"/>
<path d="M 261.2179 316.4153 261.5483 316.9785 265.5357 321.4614 265.7783 321.664 267.3681 326.3826 265.4373 328.0805 260.81 328.7602 256.3447 328.0464 254.6012 325.9101 255.0253 321.4216 256.6518 317.9554 259.6972 316.9305 261.2179 316.4153 Z" fill="#303545" opacity="0.25"/>
<path d="M 178.638 336.5042 183.2363 336.1058 186.3022 337.3571 187.674 338.1273 189.3105 342.1088 187.2292 346.1437 186.0386 346.6384 182.6863 347.6281 178.0612 346.4413 177.8246 346.222 173.7589 343.5341 170.5774 341.3504 174.0024 337.0563 174.5973 336.8147 178.638 336.5042 Z" fill="#303545" opacity="0.25"/>
<path d="M 246.7939 342.9193 251.432 340.5377 255.9286 342.4896 257.1686 344.5602 260.2469 347.1957 261.902 349.3088 263.4014 354.018 260.0373 357.1179 255.3872 357.0894 250.8635 356.0121 247.0816 353.4404 246.5187 352.495 244.8129 348.7804 246.2161 344.243 246.7939 342.9193 Z" fill="#303545" opacity="0.25"/>
<path d="M 50.9648 14.2561 58.5165 13.4072 64.9334 14.9064 72.085 19.9518 78.3449 44.087 77.9024 53.4475 77.1957 61.3299 79.9731 67.9162 96.8929 82.8831 104.4308 89.0621 110.2493 95.3655 117.0812 102.4385 125.0062 113.0852 128.099 124.2908 127.9197 132.5115 123.7722 139.5096 120.2566 141.3852 117.3895 137.7737 114.9499 127.5553 108.1886 118.2109 102.1539 112.0233 88.823 91.838 83.1242 92.3278 81.9608 98.1702 83.3736 103.0645 87.2909 112.6513 89.3565 126.2755 95.7454 135.6697 97.7058 138.9157 97.5017 144.1936 92.6655 155.2537 94.1877 163.195 103.6937 162.8805 106.0289 167.8062 105.1841 173.9824 101.312 184.3199 96.711 218.0908 95.8233 226.0852 93.4099 229.1876 84.2172 232.5555 76.5861 233.4411 76.0564 238.5085 88.4642 244.3297 92.847 253.5929 93.6088 264.7308 99.2255 292.5152 106.3044 315.9027 109.8289 330.6634 111.386 342.4303 108.8448 353.2208 104.7278 359.1862 99.8096 362.9934 93.1632 363.1576 90.0368 359.5314 87.9094 341.319 81.7567 320.9342 75.4614 294.6534 73.8105 279.2703 73.1925 275.1384 69.2013 270.9489 65.8335 275.5738 63.8609 281.4989 64.9069 289.9087 64.2737 298.0167 57.1943 302.3079 49.3501 296.5933 43.5958 287.8204 38.313 273.3339 35.9964 263.5323 34.7652 254.4198 35.0835 246.1574 39.007 228.8714 42.5144 218.3709 52.0862 195.8649 58.5984 184.7302 65.654 176.1223 70.0587 166.8726 73.6032 151.0882 75.4598 119.9721 64.9155 102.7448 60.8645 91.3477 61.0884 84.8075 63.2625 80.9138 69.6966 73.1446 71.568 65.2617 71.0975 57.8356 69.5349 52.3382 64.2571 51.9032 56.2811 51.1801 50.8375 42.5986 47.8989 32.2438 46.5731 18.5928 50.9648 14.2561 Z" fill="#303545" opacity="0.25"/>
<path d="M 168.2779 113.5859 172.5509 113.5316 175.1715 115.1654 176.7764 116.2184 178.4577 119.5354 178.7941 123.7665 178.6956 127.9054 179.1585 132.1711 179.5552 136.2513 178.5064 140.5427 176.7799 144.6915 175.1114 147.4628 170.9801 148.4692 170.7171 148.5851 170.604 148.5599 166.6528 144.0051 166.5403 143.9794 164.2317 139.6108 162.6386 137.3221 161.1259 135.2236 159.2384 130.7653 159.5144 126.6462 161.1963 122.5177 163.2012 118.4706 163.693 117.3705 166.1111 114.4672 168.2779 113.5859 Z" fill="#303545" opacity="0.25"/>
<path d="M 150.4809 194.3648 157.0713 194.2857 162.9293 195.7687 172.1987 200.4065 176.2425 208.9822 180.1573 217.3355 184.9388 223.5555 190.7223 232.7484 185.9498 235.8775 179.1859 235.4323 168.9198 231.5809 164.1325 222.4583 158.9585 213.2199 153.3722 208.4421 146.2402 199.2035 150.4809 194.3648 Z" fill="#303545" opacity="0.25"/>
<path d="M 374.306 200.6526 378.7003 200.4406 380.7886 202.2099 381.6307 206.5169 378.6821 209.6985 374.3543 206.6542 374.2352 206.6505 373.3079 202.1628 374.306 200.6526 Z" fill="#303545" opacity="0.25"/>
<path d="M 757.5393 199.2957 759.7939 201.1261 758.7611 205.7816 758.2498 206.6616 753.9896 208.5046 753.169 206.228 753.7328 205.5156 756.0331 201.5649 757.5393 199.2957 Z" fill="#303545" opacity="0.25"/>
<path d="M 224.3649 219.7601 229.455 220.3993 233.0261 222.8725 237.1233 231.8586 238.1474 243.5187 243.6099 252.8537 245.0612 259.6872 240.0215 257.5782 236.2935 253.5437 230.1448 252.2719 227.5672 257.4707 223.1616 261.158 218.2105 260.8934 213.9248 269.8339 214.11 275.8262 216.5288 283.4067 226.0682 287.5219 225.9292 293.6317 215.9104 297.1639 210.4661 299.7983 206.0677 296.7905 204.3659 289.6536 204.4465 282.992 196.2332 264.5122 196.3067 258.3746 200.0405 251.1413 205.3859 246.12 213.6919 238.2616 216.9137 229.5331 220.8401 221.6265 224.3649 219.7601 Z" fill="#303545" opacity="0.25"/>
<path d="M 396.347 221.5519 406.1172 223.6889 413.868 227.1276 427.2512 238.0211 442.2112 247.5301 458.7759 256.628 472.2129 263.2595 492.3582 271.3876 518.4002 293.4571 531.594 303.8726 549.4443 314.8794 578.3713 334.0215 593.9449 340.7751 601.1313 350.5772 598.1181 361.8835 592.5626 367.5822 583.6747 372.6509 575.6447 376.1444 563.7873 379.3424 556.8619 379.6173 548.3814 378.2797 535.932 377.105 524.9156 380.7313 506.3424 389.6988 489.0946 398.8258 481.876 402.3568 475.529 407.189 461.2551 419.7548 446.8259 431.1165 429.8386 441.4852 417.0945 452.9938 402.3779 465.0499 396.5051 467.0711 391.1161 464.5983 384.6664 457.261 374.8922 458.0815 365.2745 462.6291 357.1239 465.4437 350.2028 462.751 348.1383 450.071 350.7044 437.7523 353.546 428.1951 357.613 419.0203 369.4396 402.8175 390.1547 374.193 403.3553 360.6369 413.1977 345.9166 416.1057 338.6255 416.3166 327.7045 409.207 309.5258 405.3411 300.8572 402.8255 289.7653 403.6583 277.3142 402.9773 264.0026 405.6453 253.3119 405.6764 244.8613 402.6302 239.6763 397.119 228.0943 396.347 221.5519 Z" fill="#303545" opacity="0.25"/>
<path d="M 55.8333 323.3672 60.6771 323.2913 63.4016 326.7472 68.8093 333.9761 77.188 345.8866 81.8939 354.2601 89.7342 360.1695 98.5228 371.9383 104.9352 377.1919 111.7817 380.7275 116.4913 383.5659 117.631 387.5407 116.1633 392.1717 110.9021 394.1766 92.7301 388.1489 81.4191 385.9 71.1588 382.3941 63.6708 378.4647 57.7636 372.0465 55.7263 365.0378 55.0688 353.1903 51.0284 334.2484 55.8333 323.3672 Z" fill="#303545" opacity="0.25"/>
<path d="M 251.2516 345.2317 255.8284 346.668 258.6626 349.1028 259.8812 353.7843 255.5221 354.8364 251.0065 353.7596 250.6241 353.5374 247.6729 348.7984 251.2516 345.2317 Z" fill="#303545" opacity="0.25"/>
<path d="M 55.1918 14.4485 63.5453 15.6258 67.6384 17.6488 70.6008 20.6475 71.1728 24.7122 71.6566 28.7479 74.0849 36.9861 74.6085 41.0399 73.7073 44.9558 65.9572 48.0742 60.9818 48.4308 56.8521 46.4079 53.1013 40.2344 51.0363 34.3124 49.795 29.0499 48.67 22.0568 50.6751 16.7984 55.1918 14.4485 Z" fill="#303545" opacity="0.25"/>
<path d="M 80.381 74.0659 80.8017 74.2045 84.3428 78.7235 84.4484 78.7578 84.2909 78.8836 80.0164 79.4365 78.1136 78.1005 79.7497 74.2116 80.381 74.0659 Z" fill="#303545" opacity="0.25"/>
<path d="M 71.2275 80.7757 72.3376 81.6822 74.7757 86.0514 74.9899 87.1893 75.8509 90.3191 75.8709 94.5963 76.4911 98.8942 77.393 103.1057 73.8669 106.9549 73.4884 107.0101 69.3531 103.8659 68.4281 102.3081 66.1032 97.7774 65.6195 97.0784 64.2327 93.3917 63.2928 89.1393 64.34 85.0319 66.8166 81.5965 68.8893 81.4099 71.2275 80.7757 Z" fill="#303545" opacity="0.25"/>
<path d="M 100.6663 91.0925 102.9425 92.8393 104.7856 94.0977 107.8735 97.481 108.7595 98.4463 112.2589 102.1078 112.8139 102.6203 116.3574 106.6267 116.8081 107.1065 119.7919 111.1128 120.702 114.1804 121.0865 115.3425 120.5499 116.425 115.9964 118.3213 111.8249 117.1375 108.5066 114.2402 107.6789 113.8232 103.5563 110.4938 102.7682 109.5532 99.9342 105.1707 99.5981 104.7159 97.9325 100.8528 96.6475 96.5719 96.657 92.3353 100.6663 91.0925 Z" fill="#303545" opacity="0.25"/>
<path d="M 84.6643 130.8976 88.9901 131.8637 92.1604 134.2453 93.1153 134.7093 95.8812 138.9125 95.7332 143.1412 93.1895 147.2024 92.0428 149.0035 88.7888 151.2497 87.2108 153.6371 83.6304 155.2439 82.6152 156.5481 81.9391 155.0898 79.5223 150.4119 78.8825 148.0657 78.7607 146.0581 78.7373 141.7539 78.8342 137.4892 80.0431 133.2163 84.6643 130.8976 Z" fill="#303545" opacity="0.25"/>
<path d="M 72.0857 177.9321 75.8208 176.9126 78.8407 179.0803 80.8411 181.2932 87.3555 185.0015 95.5209 185.1957 97.8646 188.537 97.5524 193.2758 96.7578 202.5333 96.0055 208.946 91.8608 223.9212 72.7152 234.4823 74.4816 240.7566 80.1307 242.3669 85.249 243.98 89.646 248.2421 91.0279 261.3518 94.008 272.363 99.0967 295.7021 106.3077 319.2937 108.9522 328.4932 110.0912 340.1662 108.7043 351.4084 105.303 357.3654 99.2129 360.7129 92.9589 357.581 90.8354 351.1659 88.954 339.4396 81.7662 317.7104 76.6433 293.3595 74.6267 280.757 71.5308 270.8896 55.4306 297.2884 49.2656 291.6878 42.8077 280.3361 39.2933 269.2829 37.2755 259.03 36.7555 245.6004 40.3918 230.4056 48.1548 209.8323 52.3426 201.198 58.8649 190.4156 72.0857 177.9321 Z" fill="#303545" opacity="0.25"/>
<path d="M 158.821 203.6662 163.3035 202.5405 167.6507 203.1305 169.6214 204.959 171.8497 207.3648 172.7738 209.4929 174.6858 214.1109 175.848 215.757 177.4955 218.7311 179.9644 222.0426 180.9698 223.2984 183.1943 227.9577 182.8495 232.2854 179.2914 232.9894 174.9233 232.6393 173.3212 231.7845 170.5927 229.6371 168.8293 227.155 166.7413 222.6614 166.607 222.1041 165.8292 218.061 164.0554 213.4503 162.8537 210.8987 161.1533 208.941 158.76 205.063 155.1113 204.0696 158.821 203.6662 Z" fill="#303545" opacity="0.25"/>
<path d="M 224.1874 223.9182 230.6421 225.466 232.6793 232.4069 231.9922 243.4703 227.6836 247.6986 222.8222 256.0293 213.6449 261.3732 209.9695 269.5293 211.0462 278.6562 213.0114 283.3649 221.5754 287.0074 224.4057 288.1446 223.3143 292.7084 216.8314 294.6788 212.6213 296.2863 207.8356 294.0988 206.9403 287.6279 207.2863 278.5557 204.3297 269.9762 198.8357 260.0578 200.6485 255.6383 205.2669 251.1849 214.5722 242.7851 220.7661 229.6464 224.1874 223.9182 Z" fill="#303545" opacity="0.25"/>
<path d="M 418.6024 244.148 426.7549 246.1284 432.1307 250.0061 445.6448 258.9968 460.0616 263.4875 476.8997 270.793 490.0234 276.2249 501.8452 286.3099 527.3428 305.8519 537.8757 312.8155 552.3908 320.9991 578.551 339.4188 588.986 347.087 590.4417 353.5328 588.7114 358.8498 584.0649 364.2086 578.2894 368.6439 570.5282 371.8987 560.3639 373.8136 547.9779 371.8775 537.7356 371.5334 528.4566 373.9795 513.2278 381.707 497.6793 389.0901 484.4693 396.147 459.8655 416.6932 446.3003 427.502 434.3241 434.8526 426.6487 439.4568 421.6612 444.1677 409.8414 456.1144 403.8625 460.2356 398.6089 460.7191 395.4325 457.5885 391.1489 451.5043 378.6495 453.0008 365.7099 458.1628 355.3397 458.6541 352.293 451.2868 353.2942 441.1442 355.4958 432.9418 363.1043 415.9362 381.9952 391.1947 392.0145 378.2052 401.545 368.4253 411.2015 357.187 420.2672 343.2789 423.7657 333.5381 421.14 321.4315 418.9903 314.5175 417.883 304.6507 413.572 291.3388 411.6367 280.6156 412.3788 270.9321 418.6024 244.148 Z" fill="#303545" opacity="0.25"/>
<path d="M 236.6079 247.1306 237.2225 248.0939 240.9305 251.2508 241.6018 252.743 240.7872 254.8951 238.949 252.7099 236.4536 249.0278 235.2214 247.9722 236.6079 247.1306 Z" fill="#303545" opacity="0.25"/>
<path d="M 55.6412 326.5543 59.7902 326.4618 64.2412 330.394 68.4016 335.481 75.2258 345.1922 81.0595 355.8332 89.6911 364.9737 98.424 374.7607 111.7653 381.4332 116.8404 385.2387 115.8348 391.036 106.4929 391.7513 98.8365 388.8984 83.7563 384.1685 70.0804 380.3288 60.2202 372.1737 57.0635 358.05 55.6019 348.6678 53.5087 343.7686 52.1363 334.3835 55.6412 326.5543 Z" fill="#303545" opacity="0.25"/>
<path d="M 55.005 16.1427 59.2665 15.6242 63.3723 17.3199 67.4731 19.3441 68.5417 20.4329 68.9062 24.4281 68.824 28.4425 69.9694 32.5462 70.5807 34.3471 71.131 36.6545 71.1822 40.7257 70.0119 42.4318 67.9589 44.3584 65.4071 45.4011 61.1783 45.3083 57.8902 43.233 57.1444 42.4289 55.5769 38.8374 53.8951 34.6667 53.5638 34.0113 52.4926 30.4183 51.6098 26.3626 51.0993 22.2709 51.5535 18.3712 55.005 16.1427 Z" fill="#303545" opacity="0.25"/>
<path d="M 104.3516 99.0784 106.7853 101.5635 108.4589 103.4657 111.4552 106.1001 112.4152 107.2579 114.9816 110.6345 112.1006 112.4539 107.9384 110.8973 106.6638 109.9953 103.7691 107.3763 102.4662 105.399 101.5255 101.0554 104.3516 99.0784 Z" fill="#303545" opacity="0.25"/>
<path d="M 84.1597 137.7047 88.7183 135.1678 92.9762 136.8043 94.2164 138.7759 93.8375 142.9383 92.3215 145.1625 87.8183 146.6729 84.0315 142.1318 83.9954 139.4406 83.9978 137.8336 84.1597 137.7047 Z" fill="#303545" opacity="0.25"/>
<path d="M 66.817 188.019 88.5677 190.9069 94.0451 191.7536 94.7574 204.6611 92.4736 216.5632 86.2302 225.3998 72.5844 226.3375 71.0148 237.591 75.637 244.1485 81.9228 244.4892 88.5396 249.3752 88.4968 258.336 95.0163 281.4055 99.8331 300.3598 106.2658 322.3162 109.1962 333.8975 109.0833 347.4047 104.2633 356.94 97.187 358.4401 93.3741 355.9003 88.0116 332.0476 81.5243 313.3435 76.9642 289.6734 73.6542 270.5883 68.7874 266.6862 62.7532 274.8673 60.4338 287.1867 56.1898 292.2744 49.8385 287.8799 45.7039 281.7573 41.8025 271.8718 38.0192 250.1815 39.9969 236.2748 42.7801 227.5353 51.8104 207.006 57.2155 197.3082 62.0518 191.7745 66.817 188.019 Z" fill="#303545" opacity="0.25"/>
<path d="M 175.4636 222.5389 175.8435 223.1443 176.9579 227.5938 175.1743 228.2882 174.0987 227.3645 171.9929 222.8809 175.4636 222.5389 Z" fill="#303545" opacity="0.25"/>
<path d="M 214.2312 249.3815 217.0152 251.7678 214.2427 256.215 213.9657 256.3443 210.0527 260.598 209.1692 262.0272 204.7675 261.45 203.5421 260.3598 204.9409 256.742 205.491 255.7846 209.6679 252.2926 211.0513 251.6509 214.2312 249.3815 Z" fill="#303545" opacity="0.25"/>
<path d="M 432.1695 265.3714 441.6923 265.1559 448.6834 268.0607 466.2297 272.0343 479.1453 276.9 486.3653 280.6224 491.7678 285.1237 517.503 302.4028 528.7302 310.7666 541.3609 318.3757 551.7124 324.3907 564.5357 335.4447 576.4084 344.7723 581.0212 349.7558 582.6091 354.4386 580.1932 360.0063 570.3698 366.1577 558.3827 367.4153 552.4202 365.8197 543.1817 364.1924 533.9301 366.3329 520.4987 372.7679 506.6304 378.564 490.1459 386.2748 478.4257 395.2604 467.8727 405.6387 420.4817 440.7262 411.0004 450.5983 406.2144 453.3517 400.4419 448.8413 392.6807 444.9707 382.521 448.0825 368.7661 453.4304 359.7081 454.8544 355.7477 448.3214 357.167 437.8453 360.0673 429.3155 367.3886 414.5222 377.2975 401.8223 395.9873 378.7737 405.901 368.7929 415.1178 357.6973 423.4991 345.8488 429.0439 332.0825 423.5287 300.0986 421.1027 288.6972 420.5282 281.4355 423.0176 276.7415 432.1695 265.3714 Z" fill="#303545" opacity="0.25"/>
<path d="M 212.5427 287.8504 217.1486 287.7141 219.5746 288.0973 217.2846 292.646 216.8729 292.7561 215.8474 292.5932 212.5149 288.0213 212.5427 287.8504 Z" fill="#303545" opacity="0.25"/>
<path d="M 55.4238 328.8334 62.2528 330.3842 67.2948 335.3601 73.5329 345.1033 80.9421 357.4114 89.5769 366.0151 98.2789 375.9709 111.749 382.1389 115.4993 384.7608 115.1298 389.6385 111.0591 391.5547 106.5652 390.172 92.99 384.6561 79.1894 381.9529 65.7943 375.9879 61.5351 371.0953 58.6732 362.7956 58.4826 353.415 57.0353 348.7063 54.4169 342.5848 53.1588 334.3135 55.4238 328.8334 Z" fill="#303545" opacity="0.25"/>
<path d="M 54.802 18.1851 59.1284 17.5106 63.2426 19.207 64.8765 19.981 65.6272 24.1241 65.2319 28.0311 65.8045 32.1158 66.2865 34.5818 66.4455 36.0503 66.6823 40.1958 65.8392 40.9561 61.5141 41.1758 59.9798 39.381 58.2828 35.2197 57.8481 34.529 56.2031 30.9121 54.189 26.7984 54.1469 26.6056 53.4692 22.634 54.014 18.7716 54.802 18.1851 Z" fill="#303545" opacity="0.25"/>
<path d="M 66.4728 192.0598 72.9186 191.141 76.2374 193.7558 78.4077 199.4335 83.4786 200.5567 85.6883 198.6833 88.7188 197.0436 91.2031 199.5429 92.3125 208.8132 89.8109 216.3575 86.4415 221.869 82.127 221.9015 75.853 220.9901 72.3459 223.5652 69.7643 229.6541 70.6642 241.9947 73.2306 244.1785 79.9647 244.8375 85.495 246.9217 87.861 253.3174 88.067 262.885 100.8416 305.0832 106.2094 324.2647 109.3466 338.5648 107.4299 351.997 100.3366 357.2444 95.1164 355.7947 93.1104 351.1972 91.4414 340.2469 87.5947 328.1838 81.5103 308.6768 78.9763 298.4849 77.0902 285.2144 72.13 266.3772 64.5337 266.3626 60.1369 279.1615 55.4717 286.6484 46.1987 278.2855 42.57 268.4814 40.5992 259.3447 39.6099 246.8696 42.7548 232.2478 46.0988 222.9632 51.5691 211.0959 58.8288 199.6213 66.4728 192.0598 Z" fill="#303545" opacity="0.25"/>
<path d="M 441.1337 272.6038 470.1112 278.944 483.8363 285.1133 495.4421 293.7193 504.5774 298.4285 518.4298 307.0167 530.1082 315.5082 541.4806 322.0229 550.8808 328.8454 562.0003 340.1177 573.6839 350.0194 575.8058 354.8135 570.4557 360.2104 565.886 362.1689 558.8899 361.0778 552.2788 358.3387 540.92 358.1532 511.2503 370.5676 498.376 374.8087 484.6531 382.2621 474.7554 391.4589 465.5759 401.0606 454.8369 410.1227 441.97 419.1411 430.3421 427.145 420.4446 435.8933 411.5734 445.2516 406.085 447.8342 401.4789 444.8811 395.1828 440.3412 386.539 441.4283 379.7066 444.5729 364.6435 450.7139 359.5002 448.637 359.8168 440.0178 364.6377 424.982 371.3819 413.0861 380.6497 401.9007 398.444 380.3569 409.8505 369.4925 418.2368 359.7609 425.1621 350.684 429.3588 344.0394 432.6698 334.9695 432.4827 324.5717 430.4779 314.7275 429.5325 304.5208 428.0841 294.1525 428.8288 284.2756 436.1395 274.9712 441.1337 272.6038 Z" fill="#303545" opacity="0.25"/>
<path d="M 59.9602 329.927 68.4749 338.3719 74.8399 349.925 81.5079 359.7002 91.6884 369.7442 95.5663 374.6065 102.6379 378.9616 114.8338 385.1428 111.2267 390.1752 106.6987 388.9614 93.1211 382.9095 84.0241 381.9199 74.8065 379.0518 64.2231 372.5304 61.163 367.5927 59.6319 358.2154 58.5104 349.114 55.9193 343.9039 54.3736 339.1552 55.2372 332.0209 59.9602 329.927 Z" fill="#303545" opacity="0.25"/>
<path d="M 70.5532 197.2686 71.2513 203.9638 70.1107 216.0565 67.4198 234.0119 67.8614 239.7335 70.3838 244.797 75.436 246.2513 84.8324 248.3546 85.2004 258.1542 91.3036 275.9491 95.0002 290.8922 101.0853 309.6119 104.0201 317.3053 106.0816 327.0873 108.0667 334.5182 108.0119 347.1509 105.9656 352.1833 101.6197 354.8822 95.2503 351.1914 90.0396 332.3863 84.1781 313.3272 77.4425 280.4577 75.4449 270.0109 74.4972 264.7059 71.6868 261.7487 64.5997 260.0672 60.2721 268.3695 57.1664 275.2242 51.8286 276.5366 48.3597 273.8685 45.2397 266.9439 43.0636 257.5708 41.9105 249.046 44.2411 236.8921 50.0897 219.1459 58.4227 206.3641 64.5826 200.3182 70.5532 197.2686 Z" fill="#303545" opacity="0.25"/>
<path d="M 450.3953 289.2876 457.257 288.0008 463.5437 288.4325 474.8388 291.3481 483.9621 297.7655 493.5102 303.2262 504.4533 306.9504 513.1249 312.3401 522.3363 319.8901 528.0486 325.803 535.3746 333.9742 527.7117 342.1995 521.0501 352.1962 511.6291 358.0223 502.099 359.6102 493.4873 360.8932 489.3148 363.7618 480.6518 369.6456 472.5581 377.5206 465.9458 383.5428 457.8627 392.7009 443.2634 408.5578 425.4273 420.6428 406.5521 434.5479 385.8111 433.8193 374.525 438.5798 367.1781 439.2324 367.4 432.1577 369.2859 426.5129 374.2524 416.4524 387.7881 401.1738 402.1344 383.6756 419.8006 369.8019 433.5738 355.2371 439.8349 346.2638 443.0599 336.4736 440.7142 327.5171 438.1448 318.9101 440.9829 311.9098 443.6922 301.4422 445.0475 294.6487 448.6442 290.5567 450.3953 289.2876 Z" fill="#303545" opacity="0.25"/>
<path d="M 464.9096 340.5697 465.4425 340.5465 469.4958 341.5772 474.0438 344.306 475.4245 345.1034 477.8122 349.665 476.301 354.2573 474.3853 356.4377 471.3984 359.0135 469.952 359.9494 465.4048 361.3678 460.7936 361.3846 457.3251 359.2623 456.175 357.3963 455.4017 354.6489 455.6446 350.1307 455.9159 346.4784 456.1459 345.4294 460.3934 341.1045 462.7779 340.6604 464.9096 340.5697 Z" fill="#303545" opacity="0.25"/>
<path d="M 59.7524 332.207 67.7567 339.972 72.2896 348.7148 76.4416 355.891 83.0577 364.3802 89.5613 369.576 94.6061 379.1779 84.0301 380.1399 74.9546 376.7697 66.1211 370.888 62.2883 360.7298 60.1693 348.8522 56.51 339.2146 59.7524 332.207 Z" fill="#303545" opacity="0.25"/>
<path d="M 102.4953 381.415 107.0951 382.8436 111.5632 384.2246 112.689 385.0125 111.4014 386.8472 106.7507 386.8449 102.1164 386.1205 99.0844 384.1616 102.4953 381.415 Z" fill="#303545" opacity="0.25"/>
<path d="M 65.3123 206.8571 66.4978 211.5468 66.7601 222.4504 66.3455 243.0764 71.114 247.3513 81.1884 248.0582 84.4527 253.0992 82.9913 257.9051 83.7921 262.7965 88.0969 270.2499 92.9822 286.0686 97.2569 302.3884 102.3036 315.2743 106.4641 331.281 108.1447 341.8407 105.0648 351.7906 99.5869 353.8564 95.7833 346.1498 91.3161 332.3528 85.7386 315.8864 82.371 299.2185 78.7967 282.9869 77.4755 266.6205 74.2356 260.8518 66.2114 256.387 61.6997 257.9546 58.0713 265.1932 55.4657 269.8433 50.6168 270.0232 48.8048 266.9422 46.3386 261.1188 44.1774 250.4796 48.5419 230.4421 50.6068 223.8382 55.3472 214.9948 60.5864 208.6601 65.3123 206.8571 Z" fill="#303545" opacity="0.25"/>
<path d="M 464.2076 303.4806 473.1204 302.8815 477.6669 305.4149 482.2729 308.6235 489.3016 312.532 496.0299 315.209 500.6777 319.5692 500.742 324.0825 496.33 327.1748 487.2432 327.9417 480.8036 326.4124 473.6448 325.9291 464.651 325.4868 459.9117 322.3894 457.6314 317.7962 458.5017 313.2541 460.6632 308.6593 464.2076 303.4806 Z" fill="#303545" opacity="0.25"/>
<path d="M 59.546 334.4871 63.9509 337.6796 68.1428 343.8431 71.0398 349.637 73.9214 354.5165 76.9651 359.4245 80.7581 364.3309 87.2977 369.3704 91.5725 374.3464 88.8149 378.4766 84.1744 378.3941 75.1547 374.8575 70.7177 372.2773 66.3276 367.3643 64.3616 358.4217 62.8876 352.1068 60.1583 344.1806 58.7325 339.4742 59.546 334.4871 Z" fill="#303545" opacity="0.25"/>
<path d="M 428.9856 373.339 438.082 370.401 443.207 373.3997 447.3006 382.6474 443.6853 392.1003 436.9388 401.4319 426.1601 410.9506 415.6437 418.4722 405.4386 425.2171 389.7325 429.9108 383.4268 431.3567 375.8904 429.9788 376.6917 420.6654 379.6343 415.8932 387.8558 405.5016 397.0632 395.0649 406.1238 385.5986 418.493 378.3014 428.9856 373.339 Z" fill="#303545" opacity="0.25"/>
<path d="M 59.8661 217.8361 61.3386 219.9121 63.7392 224.6123 63.7605 224.9799 64.1937 229.2626 64.2948 233.8062 64.0383 238.2432 62.8296 242.759 62.1393 245.0822 60.8318 247.2221 57.1448 251.0001 52.5855 250.8901 51.3997 246.3645 50.8955 241.8632 50.944 237.3497 51.835 232.7344 52.921 228.3619 54.6643 224.0131 54.9895 223.3896 58.1235 219.6518 59.8661 217.8361 Z" fill="#303545" opacity="0.25"/>
<path d="M 70.6557 251.7242 75.2089 250.3269 79.7288 250.8851 81.3222 253.3086 79.366 255.9983 74.7456 256.6759 70.4721 253.2932 69.5002 252.472 70.6557 251.7242 Z" fill="#303545" opacity="0.25"/>
<path d="M 83.0103 267.6116 87.034 273.1934 89.8818 281.309 92.4988 295.2571 98.057 309.5657 102.0822 318.9695 105.5889 333.7436 107.01 342.4605 104.5143 349.344 100.3627 350.6589 98.0586 346.7099 95.9973 340.1354 91.3675 327.7176 87.4824 313.4751 85.2159 298.9 81.5686 285.3594 79.192 276.0862 79.5522 271.3324 83.0103 267.6116 Z" fill="#303545" opacity="0.25"/>
<path d="M 75.9286 363.9822 80.1397 368.4582 81.0077 369.0361 84.591 372.0814 86.9889 374.106 84.3285 374.8681 79.7724 373.897 79.1314 373.5555 75.3279 370.795 73.0364 368.4141 75.9286 363.9822 Z" fill="#303545" opacity="0.25"/>
<path d="M 410.8187 392.1846 419.9594 390.7619 423.1606 392.2921 420.5633 396.9901 416.5507 401.6894 411.5284 406.3768 406.3301 411.0434 401.8107 414.1366 397.1192 418.2497 392.5609 420.7915 387.1807 420.5382 389.6593 415.9096 392.4414 408.3383 397.1285 402.6817 401.6249 398.91 406.2342 395.2959 410.8187 392.1846 Z" fill="#303545" opacity="0.25"/>
<path d="M 59.4048 223.6601 59.8584 224.3406 61.6144 229.029 61.8284 233.6098 60.9015 238.0288 57.8654 241.4532 55.1647 237.5588 55.2078 233.0482 56.1604 228.6357 58.7896 224.3762 59.4048 223.6601 Z" fill="#303545" opacity="0.25"/>
<path d="M 82.6783 271.2929 82.9648 271.7305 86.5569 276.4745 86.7649 276.7099 88.142 281.2049 88.0003 285.8302 85.8194 289.913 84.2527 285.5458 81.8862 281.6742 81.6057 280.6999 80.8011 276.1687 82.3349 271.5583 82.6783 271.2929 Z" fill="#303545" opacity="0.25"/>
<path d="M 93.6822 307.1999 94.6804 309.2447 97.8141 312.7224 98.4305 314.1287 100.5583 318.9486 101.8165 322.2961 102.1827 323.636 103.2567 328.3612 104.0809 333.0215 105.3874 336.9036 105.583 337.842 105.8619 342.542 104.7863 345.8468 100.19 346.6958 98.0639 342.0736 96.7065 337.2768 96.1675 336.6074 94.3554 332.5829 93.1671 327.8162 92.4028 325.2985 91.7322 322.9819 90.534 318.3817 90.0901 313.6139 91.26 309.0823 93.6822 307.1999 Z" fill="#303545" opacity="0.25"/>
<path d="M 97.4207 318.7004 97.5516 318.7333 98.3358 323.3964 98.5638 328.0967 101.1517 331.2352 101.4416 332.9123 101.299 337.5155 100.6627 338.9652 100.3275 337.4561 99.3726 332.7602 96.7414 329.786 96.3695 327.9069 95.8441 323.3081 97.1166 318.8027 97.4207 318.7004 Z" fill="#303545" opacity="0.25"/>
</g>
</svg>